<?xml version="1.0" encoding="utf-8"?>
<!-- Generator: Adobe Illustrator 16.0.0, SVG Export Plug-In . SVG Version: 6.00 Build 0)  -->
<!DOCTYPE svg PUBLIC "-//W3C//DTD SVG 1.0//EN" "http://www.w3.org/TR/2001/REC-SVG-20010904/DTD/svg10.dtd">
<svg version="1.0" id="Layer_1" xmlns="http://www.w3.org/2000/svg" xmlns:xlink="http://www.w3.org/1999/xlink" x="0px" y="0px"
	 width="172px" height="146px" viewBox="0 0 172 146" enable-background="new 0 0 172 146" xml:space="preserve">
<g>
	<g>
		<g>
			<defs>
				<path id="SVGID_1_" d="M39.399,54.513c0,3.042,0.317,6.012,0.918,8.877l39.481,16.43L128.7,61.743
					c0.397-2.354,0.604-4.771,0.604-7.23c0-24.247-20.132-43.899-44.954-43.899C59.523,10.614,39.399,30.266,39.399,54.513"/>
			</defs>
			<clipPath id="SVGID_2_">
				<use xlink:href="#SVGID_1_"  overflow="visible"/>
			</clipPath>
			
				<linearGradient id="SVGID_3_" gradientUnits="userSpaceOnUse" x1="-896.6504" y1="397.0439" x2="-895.6496" y2="397.0439" gradientTransform="matrix(0 62.3172 62.3172 0 -24658.3008 55884.375)">
				<stop  offset="0" style="stop-color:#FAE439"/>
				<stop  offset="0.1193" style="stop-color:#F7D836"/>
				<stop  offset="0.3613" style="stop-color:#EFB42F"/>
				<stop  offset="0.7004" style="stop-color:#E37C21"/>
				<stop  offset="1" style="stop-color:#D8361A"/>
			</linearGradient>
			<rect x="39.399" y="10.614" clip-path="url(#SVGID_2_)" fill="url(#SVGID_3_)" width="89.908" height="69.206"/>
		</g>
	</g>
</g>
<g>
	<g>
		<g>
			<defs>
				<rect id="SVGID_4_" x="-468" y="-222" width="792" height="612"/>
			</defs>
			<clipPath id="SVGID_5_">
				<use xlink:href="#SVGID_4_"  overflow="visible"/>
			</clipPath>
			<path clip-path="url(#SVGID_5_)" fill="#00622E" d="M132.75,86.25c-24.898,1.486-26.1,1.546-26.1,1.546
				c0.328-0.912-0.637,1.606,20.576-5.688c16.575-5.697,29.184-3.647,29.184-3.647c-3.266-17.322-27.077-6.61-37.118-1.14
				c-9.513,5.188-8.313,0.94-8.313,0.94c6.771-14.407,35.484-13.041,35.484-13.041c-14.224-13.937-47.52,8.33-52.048,9.734
				c-5.918,1.849-6.147,1.713-9.165,2.288l-0.076,0.059l-0.354-0.059L84.557,77.2H84.15l-0.264,0.042l-0.359,0.059l-0.07-0.059
				c-3.019-0.575-3.247-0.439-9.168-2.288c-4.526-1.404-37.821-23.671-52.045-9.734c0,0,28.712-1.366,35.48,13.041
				c0,0,1.202,4.247-8.31-0.94c-10.041-5.47-33.856-16.184-37.121,1.14c0,0,12.608-2.05,29.18,3.647
				c21.218,7.295,20.253,4.776,20.583,5.688c0,0-1.2-0.06-26.101-1.546c0,0-36.247-0.136-28.612,8.51
				c9.228,10.447,16.436,7.023,16.436,7.023s2.294-3.281,7.06-4.725c4.823-1.437,11.529-2.567,24.33-2.342
				c12.769,0.221,3.658,1.797-0.431,2.725c-4.053,0.938-30.018,5.459-21.588,11.638c0,0,7.694,4.587,21.918,5.84
				c0,0-1.465-4.688,3.053-6.646c4.601-1.949,7.541-3.776,12.488-3.959c0,0,10.253-0.502-0.358,5.601
				c-9.971,6.188-5.4,5.646-5.4,5.646l18.101,11.938l1.412,0.904l1.394-0.904l18.1-11.938c0,0,4.568,0.543-5.397-5.646
				c-10.621-6.103-0.358-5.601-0.358-5.601c4.947,0.183,7.889,2.01,12.488,3.959c4.514,1.957,3.047,6.646,3.047,6.646
				c14.229-1.253,21.932-5.84,21.932-5.84c8.422-6.179-17.541-10.7-21.594-11.638c-4.091-0.928-13.207-2.504-0.433-2.725
				c12.801-0.228,19.507,0.905,24.33,2.342c4.765,1.441,7.06,4.725,7.06,4.725s7.207,3.424,16.438-7.023
				C168.998,86.114,132.75,86.25,132.75,86.25"/>
		</g>
	</g>
	<g>
		<g>
			<defs>
				<rect id="SVGID_6_" x="-468" y="-222" width="792" height="612"/>
			</defs>
			<clipPath id="SVGID_7_">
				<use xlink:href="#SVGID_6_"  overflow="visible"/>
			</clipPath>
		</g>
	</g>
	<g>
		<g>
			<defs>
				<rect id="SVGID_8_" x="-468" y="-222" width="792" height="612"/>
			</defs>
			<clipPath id="SVGID_9_">
				<use xlink:href="#SVGID_8_"  overflow="visible"/>
			</clipPath>
		</g>
	</g>
	<g>
		<g>
			<defs>
				<rect id="SVGID_10_" x="-468" y="-222" width="792" height="612"/>
			</defs>
			<clipPath id="SVGID_11_">
				<use xlink:href="#SVGID_10_"  overflow="visible"/>
			</clipPath>
		</g>
	</g>
	<g>
		<g>
			<defs>
				<rect id="SVGID_12_" x="-468" y="-222" width="792" height="612"/>
			</defs>
			<clipPath id="SVGID_13_">
				<use xlink:href="#SVGID_12_"  overflow="visible"/>
			</clipPath>
		</g>
	</g>
	<g>
		<g>
			<defs>
				<rect id="SVGID_14_" x="-468" y="-222" width="792" height="612"/>
			</defs>
			<clipPath id="SVGID_15_">
				<use xlink:href="#SVGID_14_"  overflow="visible"/>
			</clipPath>
		</g>
	</g>
	<g>
		<g>
			<defs>
				<rect id="SVGID_16_" x="-468" y="-222" width="792" height="612"/>
			</defs>
			<clipPath id="SVGID_17_">
				<use xlink:href="#SVGID_16_"  overflow="visible"/>
			</clipPath>
		</g>
	</g>
	<g>
		<g>
			<defs>
				<rect id="SVGID_18_" x="-468" y="-222" width="792" height="612"/>
			</defs>
			<clipPath id="SVGID_19_">
				<use xlink:href="#SVGID_18_"  overflow="visible"/>
			</clipPath>
		</g>
	</g>
	<g>
		<g>
			<defs>
				<rect id="SVGID_20_" x="-468" y="-222" width="792" height="612"/>
			</defs>
			<clipPath id="SVGID_21_">
				<use xlink:href="#SVGID_20_"  overflow="visible"/>
			</clipPath>
			<path clip-path="url(#SVGID_21_)" fill="#00358E" d="M84.122,87.876c-1.505,0-3.009-0.022-4.513-0.046l-0.468-0.007
				c-2.275-0.035-4.425-0.677-6.39-1.908c-0.262-0.164-0.56-0.274-0.875-0.392c-0.126-0.047-0.251-0.092-0.375-0.144
				c-0.504-0.206-0.95-0.476-1.382-0.735c-0.197-0.121-0.396-0.239-0.599-0.354c-0.567-0.313-0.994-0.759-1.406-1.188
				c-0.143-0.148-0.282-0.295-0.429-0.438c-1.154-1.096-2.489-2.413-3.632-3.876l-0.074-0.095c-0.254-0.326-0.517-0.664-0.733-1.043
				c-0.297-0.52-0.671-0.983-1.067-1.478c-0.465-0.577-0.945-1.176-1.306-1.88c-0.584-1.143-1.155-2.396-1.374-3.819
				c-0.1-0.654-0.035-1.225,0.195-1.744c-0.256,0.037-0.513,0.14-0.784,0.249l-0.096,0.039c-0.955,0.383-1.846,0.57-2.722,0.57
				l-0.164-0.001c-0.421,0-0.841,0.041-1.261,0.081c-0.452,0.042-0.905,0.084-1.359,0.084c-0.118,0-0.236-0.002-0.355-0.008
				c-0.511-0.026-1.024-0.036-1.536-0.036c-0.734,0-1.468,0.02-2.202,0.039c-0.743,0.02-1.486,0.039-2.229,0.039
				c-0.237,0-0.719-0.006-0.723-0.006c-0.164,0-0.291,0.009-0.419,0.017c-0.152,0.011-0.305,0.021-0.458,0.021
				c-0.592-0.005-0.984-0.302-1.082-0.794C44.2,68.491,44.467,68.04,45,67.848c0.066-0.023,0.1-0.032,0.128-0.049
				c0.412-0.666,1.124-0.749,1.62-0.749h0.026c-0.046-0.137-0.065-0.286-0.055-0.442c0.043-0.654,0.52-1.049,1.274-1.054
				l0.622-0.001c0.474,0,0.946,0.003,1.42,0.012h0.002c0.333,0,0.576-0.053,0.779-0.16c0.586-0.314,1.233-0.461,2.033-0.461
				l0.682,0.002c0.689,0,1.422,0.039,2.104,0.499c0.011,0.001,0.021,0.001,0.033,0.001c0.106,0,0.219-0.033,0.328-0.066
				c1.163-0.352,2.266-0.884,3.334-1.399c0.555-0.268,1.11-0.537,1.676-0.783c0.613-0.266,1.235-0.665,1.958-1.254
				c0.265-0.217,0.532-0.42,0.885-0.525c0.768-0.226,1.26-0.723,1.549-1.564c0.254-0.741,0.494-1.488,0.734-2.235
				c0.357-1.11,0.728-2.258,1.141-3.377c0.235-0.643,0.182-1.362,0.124-2.124c-0.019-0.25-0.037-0.5-0.046-0.748
				c-0.053-1.586-0.112-3.383,0.432-5.131c0.114-0.363,0.211-0.734,0.286-1.104c0.299-1.455,1.107-2.677,2.543-3.844
				c1.045-0.849,2.202-1.408,3.498-1.999c0.45-0.205,0.911-0.385,1.373-0.563c0.767-0.298,1.491-0.579,2.167-0.981
				c0.847-0.504,1.471-1.098,1.908-1.816c0.27-0.446,0.321-0.969,0.377-1.522c0.016-0.152,0.03-0.303,0.05-0.454
				c0.049-0.379,0.059-0.762,0.068-1.145c0.007-0.237,0.013-0.474,0.027-0.71c0.014-0.22-0.049-0.389-0.201-0.55
				c-0.485-0.516-0.845-1.098-1.193-1.661l-0.271-0.435c-0.58-0.909-0.591-1.924-0.033-3.015c0.088-0.177,0.127-0.334,0.126-0.524
				c-0.008-0.853,0.003-1.979,0.159-3.104c0.188-1.368,0.93-2.537,2.208-3.477c1.263-0.924,2.784-1.393,4.521-1.393
				c0.12,0,0.239,0.002,0.361,0.007c0.767,0.03,1.474,0.316,2.046,0.825c0.776,0.685,1.393,1.36,1.885,2.063
				c0.75,1.073,0.84,2.264,0.93,3.415l0.012,0.159c0.021,0.265,0.02,0.533,0.018,0.802c-0.002,0.153-0.004,0.307,0,0.46
				c0.006,0.278,0.082,0.521,0.242,0.786c0.592,0.959,0.408,1.967,0.184,2.739c-0.192,0.663-0.563,1.293-1.133,1.927
				c-0.252,0.28-0.358,0.576-0.358,0.985c-0.002,0.7,0.062,1.415,0.124,2.107c0.033,0.386,0.068,0.771,0.093,1.158
				c0.03,0.493,0.406,0.845,0.856,1.222c0.927,0.774,2.089,1.243,3.115,1.657c2.131,0.862,4.563,2.04,6.426,4.237
				c0.397,0.471,0.719,1.03,0.978,1.709c0.788,2.067,1.167,4.279,1.124,6.572c-0.018,1.005,0.121,2.04,0.411,3.075l0.041,0.148
				c0.438,1.569,0.892,3.192,1.45,4.744c0.253,0.704,0.658,1.328,1.091,1.99l0.213,0.327c0.038,0.059,0.104,0.111,0.312,0.179
				c0.871,0.289,1.557,0.599,2.149,0.977c0.915,0.585,2.14,1.314,3.502,1.764c0.067,0.022,0.206,0.065,0.328,0.17
				c0.343,0.292,0.74,0.422,1.288,0.422c0.322,0,0.648-0.042,0.975-0.082l0.525-0.061c0.389-0.04,0.771-0.078,1.148-0.078
				c0.617,0,1.129,0.101,1.608,0.319c0.272,0.126,0.606,0.187,1.021,0.187c0,0,0.567-0.008,0.803-0.008
				c0.383,0,1.343,0.012,1.343,0.012c0.328,0.002,0.813,0.052,1.202,0.453c0.313,0.32,0.418,0.721,0.303,1.134
				c0.119-0.002,0.521-0.012,0.521-0.012c0.271,0,1.076,0,1.375,0.87c0.088,0.065,0.138,0.104,0.18,0.146
				c0.257,0.248,0.378,0.57,0.328,0.882c-0.049,0.313-0.266,0.585-0.592,0.744c-0.279,0.132-0.557,0.147-0.739,0.147
				c-0.437-0.007-0.782-0.019-1.127-0.032c-0.455-0.017-0.91-0.033-1.364-0.033c-0.287,0-0.578,0.007-0.865,0.025
				c-0.802,0.052-1.59,0.062-2.528,0.062l-0.974-0.001c-0.382,0-0.764,0.001-1.146,0.009l-0.195,0.002
				c-0.931,0-1.851-0.125-2.739-0.246l-0.688-0.09c-0.479-0.061-0.916-0.229-1.341-0.391c-0.009-0.003-0.019-0.007-0.024-0.01
				c0.387,1.311,0.303,2.635,0.223,3.924l-0.022,0.366c-0.067,1.1-0.638,1.811-1.267,2.501c-0.416,0.457-0.896,0.811-1.357,1.151
				c-0.359,0.267-0.7,0.517-1.002,0.808c-0.361,0.347-0.73,0.688-1.098,1.024c-1.188,1.101-2.416,2.235-3.393,3.563
				c-1.072,1.465-2.414,2.703-3.882,3.584c-2.435,1.466-4.569,2.146-6.729,2.146l-0.414-0.005c-0.44,0-0.881,0.049-1.349,0.103
				c-0.366,0.039-0.733,0.08-1.104,0.098C87.326,87.846,85.831,87.876,84.122,87.876 M96.207,54.931
				c-0.063,0.386-0.146,0.747-0.229,1.101l-0.068,0.293c-0.32,1.409-0.542,2.868-0.756,4.279l-0.188,1.225
				c-0.034,0.237-0.062,0.475-0.083,0.714c-0.087,1.009,0.092,2,0.278,3.048c0.087,0.489,0.174,0.977,0.233,1.468
				c0.027,0.233,0.063,0.465,0.099,0.697c0.093,0.629,0.188,1.28,0.17,1.956c-0.009,0.246,0.021,0.499,0.093,0.774
				c0.067,0.259,0.178,0.259,0.215,0.259c0.038,0,0.104-0.009,0.199-0.054c0.352-0.167,0.688-0.341,0.93-0.613l0.605-0.687
				c0.477-0.535,0.949-1.071,1.402-1.625c0.58-0.711,1.24-1.221,2.006-1.545c-0.709-0.409-1.28-1.04-1.731-1.907
				c-0.284-0.545-0.534-1.103-0.782-1.661c-0.166-0.37-0.33-0.739-0.506-1.104c-0.816-1.701-1.361-3.595-1.716-5.962
				C96.338,55.329,96.283,55.115,96.207,54.931 M69.033,66.382c0.669,0.434,1.24,0.988,1.847,1.767
				c0.49,0.623,1.184,1.151,2.117,1.611c0.042,0.021,0.075,0.035,0.101,0.044c0.014-0.032,0.03-0.079,0.048-0.145
				c0.08-0.29,0.118-0.595,0.159-0.919c0.056-0.43,0.112-0.874,0.272-1.32c0.251-0.701,0.31-1.446,0.372-2.235l0.038-0.459
				c0.105-1.171,0.104-2.204-0.007-3.161l-0.008-0.064l0.01-0.064c0.096-0.666-0.039-1.328-0.269-2.117
				c-0.145-0.49-0.282-1.01-0.361-1.555c-0.04,0.07-0.07,0.141-0.087,0.214c-0.091,0.39-0.222,0.764-0.354,1.139
				c-0.116,0.33-0.232,0.66-0.316,1.004c-0.432,1.832-1.342,3.452-2.261,4.928C69.992,65.601,69.555,66.047,69.033,66.382"/>
		</g>
	</g>
	<g>
		<g>
			<defs>
				<rect id="SVGID_22_" x="-468" y="-222" width="792" height="612"/>
			</defs>
			<clipPath id="SVGID_23_">
				<use xlink:href="#SVGID_22_"  overflow="visible"/>
			</clipPath>
			<path clip-path="url(#SVGID_23_)" fill="#FFFFFF" d="M85.396,18.445c0.115,0,0.23,0.002,0.346,0.006
				c0.647,0.026,1.246,0.269,1.73,0.699c0.67,0.591,1.289,1.236,1.807,1.975c0.703,1.009,0.764,2.17,0.853,3.327
				c0.032,0.409,0.005,0.824,0.015,1.236c0.011,0.371,0.113,0.701,0.315,1.034c0.458,0.742,0.361,1.553,0.131,2.338
				c-0.192,0.658-0.573,1.229-1.026,1.733c-0.344,0.387-0.484,0.801-0.484,1.321c-0.002,1.104,0.146,2.195,0.218,3.296
				c0.044,0.708,0.55,1.166,1.036,1.573c0.957,0.801,2.096,1.272,3.248,1.738c2.341,0.946,4.557,2.118,6.229,4.097
				c0.396,0.465,0.679,0.997,0.894,1.563c0.782,2.055,1.133,4.181,1.092,6.385c-0.021,1.082,0.134,2.159,0.431,3.219
				c0.463,1.656,0.92,3.308,1.502,4.926c0.315,0.882,0.854,1.64,1.354,2.418c0.137,0.21,0.346,0.307,0.573,0.384
				c0.713,0.235,1.399,0.517,2.038,0.924c1.144,0.729,2.32,1.389,3.613,1.817c0.058,0.017,0.117,0.038,0.16,0.074
				c0.502,0.426,1.051,0.543,1.613,0.543c0.471,0,0.949-0.081,1.417-0.132c0.417-0.042,0.827-0.089,1.233-0.089
				c0.471,0,0.938,0.063,1.4,0.274c0.381,0.174,0.801,0.231,1.229,0.231c0.035,0,0.074,0,0.111-0.001
				c0.23-0.004,0.465-0.006,0.695-0.006c0.443,0,0.889,0.006,1.33,0.011c0.313,0.003,0.613,0.062,0.852,0.302
				c0.19,0.197,0.252,0.43,0.168,0.689c-0.084,0.266-0.305,0.348-0.557,0.35c-0.172,0.003-0.345,0.004-0.523,0.004
				c-0.184,0-0.373-0.001-0.576-0.001c0.093,0.233,0.242,0.257,0.386,0.257c0.037,0,0.073-0.001,0.108-0.001
				c0.677,0,1.353,0,2.026-0.021c0.052-0.002,0.103-0.003,0.149-0.003c0.425,0,0.777,0.089,0.924,0.604
				c0.027,0.108,0.188,0.177,0.279,0.269c0.297,0.284,0.238,0.637-0.135,0.819c-0.166,0.078-0.344,0.096-0.521,0.096
				c-0.027,0-0.056,0-0.081-0.001c-0.805-0.013-1.607-0.064-2.411-0.064c-0.298,0-0.597,0.006-0.896,0.026
				c-0.838,0.053-1.672,0.061-2.508,0.061c-0.317,0-0.64-0.001-0.959-0.001c-0.387,0-0.771,0.002-1.158,0.008
				c-0.063,0.002-0.125,0.002-0.188,0.002c-1.131,0-2.249-0.191-3.363-0.332c-0.602-0.076-1.176-0.363-1.762-0.557
				c-0.134-0.045-0.266-0.109-0.406-0.109c-0.029,0-0.06,0.003-0.09,0.009c0.805,1.622,0.629,3.311,0.528,5.013
				c-0.058,0.945-0.558,1.558-1.138,2.195c-0.689,0.76-1.607,1.234-2.338,1.937c-1.564,1.499-3.242,2.881-4.545,4.653
				c-1.014,1.381-2.283,2.58-3.734,3.449c-1.975,1.188-4.1,2.076-6.477,2.076c-0.084,0-0.171-0.001-0.257-0.003
				c-0.053-0.002-0.104-0.002-0.157-0.002c-0.824,0-1.646,0.16-2.475,0.199c-1.518,0.069-3.032,0.094-4.548,0.094
				c-1.658,0-3.315-0.026-4.974-0.053c-2.189-0.034-4.257-0.658-6.13-1.833c-0.419-0.262-0.886-0.396-1.331-0.573
				c-0.688-0.281-1.283-0.706-1.923-1.062c-0.689-0.381-1.175-1.015-1.732-1.549c-1.267-1.203-2.505-2.442-3.585-3.822
				c-0.269-0.35-0.549-0.696-0.766-1.077c-0.681-1.188-1.73-2.104-2.361-3.337c-0.602-1.175-1.125-2.36-1.326-3.667
				c-0.078-0.514-0.048-1.026,0.18-1.51c0.088-0.187,0.214-0.397,0.078-0.583c-0.072-0.099-0.164-0.128-0.264-0.128
				c-0.115,0-0.239,0.04-0.353,0.056c-0.353,0.049-0.678,0.19-1.005,0.32c-0.816,0.328-1.65,0.535-2.537,0.535
				c-0.026,0-0.052,0-0.078,0c-0.028,0-0.058-0.001-0.086-0.001c-0.875,0-1.743,0.165-2.62,0.165c-0.109,0-0.219-0.002-0.329-0.008
				c-0.52-0.026-1.041-0.036-1.56-0.036c-1.478,0-2.956,0.078-4.434,0.078c-0.235,0-0.469-0.002-0.704-0.006h-0.049
				c-0.282,0-0.566,0.038-0.849,0.038h-0.026c-0.265-0.002-0.506-0.092-0.563-0.391c-0.061-0.308,0.088-0.51,0.375-0.612
				c0.125-0.046,0.258-0.084,0.333-0.202c0.301-0.47,0.744-0.567,1.244-0.567c0.034,0,0.069,0.001,0.104,0.001
				c0.197,0.006,0.395,0.013,0.593,0.013c0.402,0,0.804-0.031,1.198-0.179c-0.145,0-0.291,0.009-0.436,0.009
				c-0.089,0-0.178-0.003-0.266-0.014c-0.461-0.054-0.748-0.361-0.722-0.737c0.026-0.384,0.286-0.586,0.778-0.588
				c0.208-0.001,0.416-0.002,0.624-0.002c0.469,0,0.938,0.003,1.405,0.011c0.015,0.001,0.029,0.001,0.044,0.001
				c0.346,0,0.679-0.058,0.98-0.218c0.567-0.303,1.168-0.403,1.799-0.403c0.04,0,0.08,0.001,0.119,0.001
				c0.077,0.002,0.154,0.002,0.231,0.002c0.109,0,0.221-0.001,0.331-0.001c0.632,0,1.255,0.029,1.825,0.414
				c0.103,0.068,0.209,0.093,0.319,0.093c0.158,0,0.322-0.051,0.487-0.101c1.768-0.535,3.363-1.463,5.043-2.195
				c0.755-0.328,1.436-0.804,2.076-1.326c0.219-0.179,0.44-0.353,0.71-0.432c0.972-0.287,1.557-0.945,1.879-1.881
				c0.638-1.86,1.188-3.752,1.871-5.602c0.358-0.975,0.146-2.037,0.108-3.063c-0.055-1.671-0.096-3.339,0.411-4.964
				c0.119-0.379,0.218-0.765,0.298-1.152c0.31-1.507,1.217-2.62,2.368-3.556c1.021-0.83,2.197-1.388,3.391-1.933
				c1.188-0.542,2.457-0.895,3.588-1.568c0.847-0.504,1.561-1.134,2.079-1.986c0.409-0.678,0.401-1.435,0.496-2.173
				c0.08-0.624,0.061-1.258,0.099-1.888c0.022-0.364-0.095-0.668-0.336-0.924c-0.571-0.606-0.967-1.33-1.408-2.022
				c-0.528-0.829-0.434-1.686-0.009-2.517c0.126-0.249,0.184-0.487,0.181-0.755C79,24.9,79.023,23.887,79.163,22.883
				c0.186-1.348,0.944-2.359,2.009-3.142C82.434,18.817,83.87,18.445,85.396,18.445 M95.969,71.245c0.129,0,0.268-0.033,0.414-0.103
				c0.399-0.189,0.791-0.394,1.09-0.734c0.676-0.773,1.373-1.53,2.021-2.326c0.676-0.829,1.504-1.39,2.543-1.638
				c0.107-0.025,0.238-0.01,0.344-0.143c-0.085-0.169-0.246-0.179-0.379-0.225c-1.02-0.346-1.684-1.044-2.178-1.994
				c-0.473-0.9-0.844-1.839-1.28-2.751c-0.89-1.852-1.372-3.812-1.673-5.818c-0.092-0.612-0.273-1.091-0.699-1.503
				c-0.063-0.062-0.111-0.17-0.207-0.17c-0.01,0-0.021,0.001-0.031,0.004c-0.142,0.038-0.142,0.182-0.145,0.294
				c-0.025,0.709-0.21,1.39-0.367,2.076c-0.416,1.829-0.658,3.688-0.951,5.537c-0.037,0.248-0.063,0.496-0.087,0.745
				c-0.134,1.571,0.325,3.083,0.515,4.624c0.104,0.857,0.289,1.704,0.266,2.577c-0.012,0.312,0.031,0.614,0.105,0.913
				C95.377,71.02,95.637,71.245,95.969,71.245 M73.166,70.323c0.229,0,0.364-0.177,0.463-0.532c0.199-0.724,0.163-1.489,0.419-2.203
				c0.325-0.908,0.354-1.873,0.438-2.817c0.098-1.08,0.117-2.17-0.008-3.263c0.113-0.793-0.059-1.556-0.283-2.328
				c-0.201-0.684-0.378-1.39-0.404-2.114c-0.003-0.097,0.021-0.231-0.11-0.254c-0.008-0.001-0.016-0.002-0.024-0.002
				c-0.069,0-0.156,0.044-0.208,0.092c-0.292,0.274-0.577,0.571-0.668,0.965c-0.171,0.732-0.494,1.407-0.668,2.139
				c-0.409,1.735-1.267,3.281-2.201,4.78c-0.371,0.596-0.875,1.067-1.51,1.379c-0.344,0.169-0.254,0.289,0.009,0.428
				c0.846,0.45,1.487,1.108,2.077,1.862c0.602,0.766,1.412,1.321,2.29,1.753C72.931,70.285,73.059,70.323,73.166,70.323
				 M85.396,17.445c-1.844,0-3.464,0.501-4.813,1.489c-1.393,1.024-2.202,2.306-2.409,3.813c-0.16,1.151-0.172,2.303-0.164,3.178
				c0.001,0.108-0.019,0.187-0.073,0.295c-0.8,1.566-0.41,2.772,0.059,3.506c0.091,0.143,0.18,0.287,0.269,0.43
				c0.361,0.584,0.734,1.188,1.254,1.739c0.062,0.066,0.071,0.103,0.066,0.176c-0.015,0.245-0.022,0.489-0.028,0.733
				c-0.01,0.384-0.02,0.746-0.063,1.09c-0.021,0.156-0.036,0.313-0.052,0.469c-0.052,0.517-0.097,0.964-0.309,1.314
				c-0.392,0.646-0.96,1.183-1.736,1.644c-0.638,0.381-1.344,0.654-2.091,0.944c-0.458,0.178-0.932,0.361-1.399,0.575
				c-1.328,0.606-2.516,1.18-3.605,2.065c-1.511,1.228-2.4,2.58-2.718,4.132c-0.073,0.355-0.165,0.709-0.272,1.053
				c-0.572,1.833-0.51,3.674-0.456,5.298c0.01,0.256,0.029,0.513,0.048,0.771c0.053,0.705,0.103,1.372-0.096,1.913
				c-0.417,1.13-0.788,2.283-1.147,3.399c-0.239,0.743-0.479,1.486-0.731,2.224c-0.234,0.682-0.609,1.067-1.216,1.245
				c-0.441,0.131-0.766,0.377-1.062,0.618c-0.684,0.559-1.269,0.935-1.839,1.182c-0.579,0.252-1.146,0.526-1.693,0.791
				c-1.099,0.53-2.138,1.03-3.242,1.365c-0.042,0.013-0.08,0.025-0.114,0.036c-0.752-0.445-1.54-0.485-2.228-0.485l-0.169,0.001
				h-0.162l-0.212-0.001l-0.139-0.002c-0.873,0-1.614,0.171-2.271,0.521c-0.125,0.067-0.293,0.1-0.509,0.1
				c-0.499-0.009-0.974-0.012-1.449-0.012l-0.628,0.002c-1.233,0.006-1.726,0.823-1.771,1.521c0,0.003-0.001,0.005-0.001,0.008
				c-0.43,0.065-0.995,0.256-1.429,0.809c-0.757,0.304-1.128,0.97-0.979,1.73c0.144,0.732,0.732,1.191,1.536,1.199h0.005
				c0.196,0,0.359-0.011,0.522-0.021c0.119-0.009,0.237-0.017,0.356-0.017c0.271,0.004,0.512,0.006,0.753,0.006
				c0.748,0,1.495-0.02,2.243-0.039c0.73-0.02,1.461-0.039,2.19-0.039c0.554,0,1.047,0.012,1.509,0.034
				c0.126,0.007,0.253,0.01,0.38,0.01c0.486,0,0.954-0.044,1.406-0.087c0.424-0.04,0.824-0.078,1.214-0.078l0.073,0.001h0.091
				c0.935,0,1.879-0.195,2.885-0.597c-0.037,0.336-0.028,0.689,0.027,1.057c0.229,1.495,0.82,2.793,1.424,3.973
				c0.383,0.75,0.88,1.369,1.361,1.968c0.383,0.477,0.745,0.927,1.023,1.412c0.229,0.399,0.496,0.747,0.757,1.081l0.084,0.108
				c1.171,1.496,2.521,2.829,3.688,3.938c0.137,0.132,0.274,0.275,0.411,0.417c0.417,0.436,0.89,0.929,1.525,1.28
				c0.195,0.106,0.388,0.225,0.58,0.34c0.448,0.271,0.911,0.553,1.449,0.771c0.135,0.056,0.267,0.104,0.398,0.152
				c0.289,0.104,0.562,0.208,0.781,0.344c2.041,1.28,4.277,1.948,6.645,1.983l0.45,0.008c1.485,0.021,3.021,0.046,4.538,0.046
				c1.717,0,3.22-0.031,4.595-0.095c0.39-0.021,0.769-0.063,1.136-0.104c0.451-0.05,0.879-0.097,1.291-0.097l0.133,0.002
				c0.096,0.002,0.188,0.003,0.281,0.003c2.256,0,4.479-0.705,6.991-2.219c1.521-0.912,2.913-2.197,4.026-3.715
				c0.943-1.289,2.102-2.358,3.326-3.491c0.369-0.343,0.74-0.685,1.104-1.033c0.279-0.269,0.605-0.51,0.953-0.765
				c0.482-0.357,0.982-0.726,1.432-1.221c0.663-0.728,1.318-1.543,1.396-2.808l0.021-0.366c0.064-1.044,0.131-2.11-0.037-3.187
				c0.197,0.056,0.403,0.102,0.619,0.129c0.229,0.029,0.454,0.06,0.684,0.091c0.904,0.122,1.843,0.249,2.808,0.249l0.207-0.002
				c0.378-0.006,0.758-0.008,1.138-0.008l0.479,0.001h0.481c0.953,0,1.754-0.011,2.57-0.063c0.273-0.018,0.553-0.024,0.829-0.024
				c0.448,0,0.896,0.016,1.347,0.032c0.35,0.014,0.698,0.026,1.049,0.032l0.099,0.001c0.231,0,0.583-0.02,0.946-0.191
				c0.49-0.239,0.807-0.646,0.881-1.123c0.074-0.476-0.1-0.958-0.479-1.322c-0.03-0.031-0.067-0.063-0.106-0.094
				c-0.229-0.532-0.721-1.054-1.775-1.058c-0.043-0.354-0.206-0.69-0.479-0.971c-0.582-0.597-1.316-0.603-1.561-0.605l-0.191-0.002
				c-0.381-0.005-0.764-0.009-1.146-0.009c-0.236,0-0.479,0.002-0.717,0.006l-0.092,0.001c-0.342,0-0.604-0.046-0.811-0.14
				c-0.554-0.25-1.131-0.365-1.82-0.365c-0.416,0-0.813,0.041-1.203,0.081l-0.133,0.014c-0.136,0.014-0.27,0.031-0.402,0.048
				c-0.323,0.04-0.631,0.078-0.91,0.078c-0.434,0-0.711-0.088-0.967-0.305c-0.197-0.168-0.405-0.234-0.506-0.266
				c-1.297-0.428-2.485-1.137-3.379-1.706c-0.631-0.402-1.35-0.729-2.264-1.031c-0.037-0.013-0.063-0.021-0.081-0.03l-0.176-0.27
				c-0.416-0.637-0.81-1.238-1.042-1.889c-0.549-1.531-0.999-3.138-1.434-4.693l-0.049-0.166c-0.274-0.988-0.408-1.974-0.393-2.933
				c0.044-2.357-0.348-4.631-1.157-6.758c-0.276-0.732-0.627-1.339-1.063-1.854c-1.942-2.292-4.559-3.543-6.618-4.377
				c-0.991-0.4-2.115-0.853-2.979-1.577c-0.438-0.365-0.666-0.599-0.682-0.868c-0.025-0.393-0.061-0.784-0.094-1.174
				c-0.063-0.711-0.123-1.383-0.123-2.058c0-0.293,0.063-0.465,0.232-0.658c0.618-0.688,1.024-1.382,1.239-2.117
				c0.235-0.802,0.468-2.001-0.239-3.144c-0.111-0.184-0.162-0.346-0.168-0.534c-0.003-0.148,0-0.297,0-0.446
				c0.006-0.269,0.008-0.548-0.017-0.843l-0.013-0.155c-0.09-1.162-0.188-2.479-1.018-3.666c-0.514-0.734-1.156-1.438-1.965-2.153
				c-0.658-0.584-1.473-0.913-2.354-0.948C85.648,17.447,85.523,17.445,85.396,17.445 M96.189,70.123
				c-0.023-0.143-0.032-0.27-0.028-0.394c0.021-0.725-0.078-1.399-0.175-2.051c-0.034-0.226-0.067-0.453-0.096-0.68
				c-0.063-0.509-0.152-1.01-0.238-1.494c-0.182-1.015-0.354-1.975-0.271-2.923c0.021-0.221,0.043-0.449,0.078-0.677
				c0.064-0.404,0.126-0.811,0.188-1.219c0.164-1.084,0.334-2.196,0.549-3.288c0.35,1.643,0.82,3.059,1.447,4.367
				c0.172,0.358,0.334,0.72,0.494,1.083c0.25,0.556,0.506,1.132,0.801,1.699c0.345,0.657,0.75,1.192,1.229,1.611
				c-0.534,0.335-1.019,0.767-1.446,1.294c-0.441,0.54-0.921,1.08-1.385,1.602c-0.205,0.232-0.411,0.464-0.615,0.697
				C96.591,69.896,96.402,70.014,96.189,70.123 M69.873,66.371c0.341-0.302,0.636-0.654,0.887-1.057
				c0.941-1.512,1.875-3.174,2.324-5.078c0.05-0.209,0.116-0.419,0.189-0.636c0.188,0.664,0.291,1.226,0.215,1.768l-0.019,0.127
				l0.015,0.127c0.106,0.922,0.107,1.923,0.006,3.059l-0.039,0.469c-0.061,0.753-0.117,1.465-0.346,2.101
				c-0.177,0.498-0.24,0.992-0.296,1.428c-0.017,0.133-0.033,0.262-0.052,0.388c-0.636-0.365-1.124-0.769-1.486-1.229
				C70.802,67.234,70.348,66.756,69.873,66.371"/>
		</g>
	</g>
	<g>
		<g>
			<defs>
				<rect id="SVGID_24_" x="-468" y="-222" width="792" height="612"/>
			</defs>
			<clipPath id="SVGID_25_">
				<use xlink:href="#SVGID_24_"  overflow="visible"/>
			</clipPath>
		</g>
	</g>
	<g>
		<g>
			<defs>
				<rect id="SVGID_26_" x="-468" y="-222" width="792" height="612"/>
			</defs>
			<clipPath id="SVGID_27_">
				<use xlink:href="#SVGID_26_"  overflow="visible"/>
			</clipPath>
		</g>
	</g>
	<g>
		<g>
			<defs>
				<rect id="SVGID_28_" x="-468" y="-222" width="792" height="612"/>
			</defs>
			<clipPath id="SVGID_29_">
				<use xlink:href="#SVGID_28_"  overflow="visible"/>
			</clipPath>
		</g>
	</g>
	<g>
		<g>
			<defs>
				<rect id="SVGID_30_" x="-468" y="-222" width="792" height="612"/>
			</defs>
			<clipPath id="SVGID_31_">
				<use xlink:href="#SVGID_30_"  overflow="visible"/>
			</clipPath>
		</g>
	</g>
	<g>
		<g>
			<defs>
				<rect id="SVGID_32_" x="-468" y="-222" width="792" height="612"/>
			</defs>
			<clipPath id="SVGID_33_">
				<use xlink:href="#SVGID_32_"  overflow="visible"/>
			</clipPath>
		</g>
	</g>
	<g>
		<g>
			<defs>
				<rect id="SVGID_34_" x="-468" y="-222" width="792" height="612"/>
			</defs>
			<clipPath id="SVGID_35_">
				<use xlink:href="#SVGID_34_"  overflow="visible"/>
			</clipPath>
		</g>
	</g>
	<g>
		<g>
			<defs>
				<rect id="SVGID_36_" x="-468" y="-222" width="792" height="612"/>
			</defs>
			<clipPath id="SVGID_37_">
				<use xlink:href="#SVGID_36_"  overflow="visible"/>
			</clipPath>
		</g>
	</g>
	<g>
		<g>
			<defs>
				<rect id="SVGID_38_" x="-468" y="-222" width="792" height="612"/>
			</defs>
			<clipPath id="SVGID_39_">
				<use xlink:href="#SVGID_38_"  overflow="visible"/>
			</clipPath>
		</g>
	</g>
	<g>
		<g>
			<defs>
				<rect id="SVGID_40_" x="-468" y="-222" width="792" height="612"/>
			</defs>
			<clipPath id="SVGID_41_">
				<use xlink:href="#SVGID_40_"  overflow="visible"/>
			</clipPath>
		</g>
	</g>
	<g>
		<g>
			<defs>
				<rect id="SVGID_42_" x="-468" y="-222" width="792" height="612"/>
			</defs>
			<clipPath id="SVGID_43_">
				<use xlink:href="#SVGID_42_"  overflow="visible"/>
			</clipPath>
		</g>
	</g>
	<g>
		<g>
			<defs>
				<rect id="SVGID_44_" x="-468" y="-222" width="792" height="612"/>
			</defs>
			<clipPath id="SVGID_45_">
				<use xlink:href="#SVGID_44_"  overflow="visible"/>
			</clipPath>
		</g>
	</g>
	<g>
		<g>
			<defs>
				<rect id="SVGID_46_" x="-468" y="-222" width="792" height="612"/>
			</defs>
			<clipPath id="SVGID_47_">
				<use xlink:href="#SVGID_46_"  overflow="visible"/>
			</clipPath>
		</g>
	</g>
	<g>
		<g>
			<defs>
				<rect id="SVGID_48_" x="-468" y="-222" width="792" height="612"/>
			</defs>
			<clipPath id="SVGID_49_">
				<use xlink:href="#SVGID_48_"  overflow="visible"/>
			</clipPath>
		</g>
	</g>
	<g>
		<g>
			<defs>
				<rect id="SVGID_50_" x="-468" y="-222" width="792" height="612"/>
			</defs>
			<clipPath id="SVGID_51_">
				<use xlink:href="#SVGID_50_"  overflow="visible"/>
			</clipPath>
		</g>
	</g>
	<g>
		<g>
			<defs>
				<rect id="SVGID_52_" x="-468" y="-222" width="792" height="612"/>
			</defs>
			<clipPath id="SVGID_53_">
				<use xlink:href="#SVGID_52_"  overflow="visible"/>
			</clipPath>
		</g>
	</g>
</g>
</svg>
