<?xml version="1.0" encoding="utf-8"?>
<!-- Generator: Adobe Illustrator 16.0.0, SVG Export Plug-In . SVG Version: 6.00 Build 0)  -->
<!DOCTYPE svg PUBLIC "-//W3C//DTD SVG 1.0//EN" "http://www.w3.org/TR/2001/REC-SVG-20010904/DTD/svg10.dtd">
<svg version="1.0" id="Layer_1" xmlns="http://www.w3.org/2000/svg" xmlns:xlink="http://www.w3.org/1999/xlink" x="0px" y="0px"
	 width="531px" height="146px" viewBox="0 0 531 146" enable-background="new 0 0 531 146" xml:space="preserve">
<g>
	<g>
		<defs>
			<path id="SVGID_1_" d="M398.399,54.513c0,3.042,0.316,6.012,0.918,8.877l39.48,16.43L487.7,61.743
				c0.397-2.354,0.604-4.771,0.604-7.23c0-24.247-20.131-43.899-44.953-43.899C418.523,10.614,398.399,30.266,398.399,54.513"/>
		</defs>
		<clipPath id="SVGID_2_">
			<use xlink:href="#SVGID_1_"  overflow="visible"/>
		</clipPath>
		
			<linearGradient id="SVGID_3_" gradientUnits="userSpaceOnUse" x1="-143.8252" y1="78.8594" x2="-142.8248" y2="78.8594" gradientTransform="matrix(0 62.3172 -62.3172 0 5357.582 8970.4063)">
			<stop  offset="0" style="stop-color:#FAE439"/>
			<stop  offset="0.1193" style="stop-color:#F7D836"/>
			<stop  offset="0.3613" style="stop-color:#EFB42F"/>
			<stop  offset="0.7004" style="stop-color:#E37C21"/>
			<stop  offset="1" style="stop-color:#D8361A"/>
		</linearGradient>
		<rect x="398.399" y="10.614" clip-path="url(#SVGID_2_)" fill="url(#SVGID_3_)" width="89.906" height="69.206"/>
	</g>
</g>
<g>
	<g>
		<defs>
			<rect id="SVGID_4_" x="-109" y="-222" width="792" height="612"/>
		</defs>
		<clipPath id="SVGID_5_">
			<use xlink:href="#SVGID_4_"  overflow="visible"/>
		</clipPath>
		<path clip-path="url(#SVGID_5_)" fill="#00622E" d="M491.75,86.25c-24.899,1.486-26.1,1.546-26.1,1.546
			c0.327-0.912-0.637,1.606,20.576-5.688c16.576-5.698,29.184-3.648,29.184-3.648c-3.267-17.322-27.077-6.61-37.118-1.139
			c-9.512,5.188-8.313,0.94-8.313,0.94c6.771-14.407,35.484-13.041,35.484-13.041c-14.224-13.937-47.519,8.33-52.048,9.734
			c-5.918,1.849-6.147,1.713-9.165,2.288l-0.076,0.059l-0.354-0.059l-0.265-0.042h-0.406l-0.265,0.042l-0.358,0.059l-0.07-0.059
			c-3.02-0.575-3.247-0.439-9.168-2.288c-4.526-1.404-37.821-23.671-52.045-9.734c0,0,28.712-1.366,35.479,13.041
			c0,0,1.202,4.247-8.31-0.94c-10.041-5.471-33.856-16.184-37.121,1.139c0,0,12.608-2.05,29.18,3.648
			c21.218,7.295,20.253,4.776,20.583,5.688c0,0-1.2-0.06-26.101-1.546c0,0-36.247-0.136-28.612,8.51
			c9.229,10.447,16.437,7.023,16.437,7.023s2.294-3.281,7.06-4.725c4.823-1.436,11.529-2.567,24.33-2.341
			c12.769,0.22,3.658,1.796-0.431,2.724c-4.054,0.938-30.019,5.459-21.589,11.638c0,0,7.694,4.587,21.918,5.84
			c0,0-1.465-4.688,3.054-6.646c4.601-1.949,7.541-3.776,12.487-3.959c0,0,10.254-0.502-0.357,5.601
			c-9.971,6.188-5.4,5.646-5.4,5.646l18.102,11.937l1.412,0.905l1.394-0.905l18.101-11.937c0,0,4.567,0.543-5.399-5.646
			c-10.621-6.103-0.359-5.601-0.359-5.601c4.948,0.183,7.89,2.01,12.489,3.959c4.512,1.957,3.047,6.646,3.047,6.646
			c14.229-1.253,21.93-5.84,21.93-5.84c8.424-6.179-17.541-10.7-21.594-11.638c-4.089-0.928-13.207-2.504-0.431-2.724
			c12.801-0.228,19.507,0.905,24.33,2.341c4.765,1.442,7.059,4.725,7.059,4.725s7.207,3.424,16.438-7.023
			C527.998,86.114,491.75,86.25,491.75,86.25"/>
	</g>
	<g>
		<defs>
			<rect id="SVGID_6_" x="-109" y="-222" width="792" height="612"/>
		</defs>
		<clipPath id="SVGID_7_">
			<use xlink:href="#SVGID_6_"  overflow="visible"/>
		</clipPath>
		<path clip-path="url(#SVGID_7_)" fill="#00622E" d="M189.688,64.589c0.653,0,1.354-0.228,2.102-0.694
			c0.747-0.464,1.332-1.051,1.757-1.752c0.395-0.706,0.5-1.287,0.319-1.754c-0.183-0.464-0.601-0.7-1.247-0.7
			c-0.654,0-1.354,0.236-2.101,0.7c-0.747,0.467-1.323,1.048-1.718,1.754c-0.393,0.701-0.506,1.288-0.335,1.752
			C188.629,64.361,189.042,64.589,189.688,64.589"/>
	</g>
	<g>
		<defs>
			<rect id="SVGID_8_" x="-109" y="-222" width="792" height="612"/>
		</defs>
		<clipPath id="SVGID_9_">
			<use xlink:href="#SVGID_8_"  overflow="visible"/>
		</clipPath>
		<path clip-path="url(#SVGID_9_)" fill="#00622E" d="M166.419,65.561c0.652,0,1.35-0.23,2.1-0.694
			c0.747-0.464,1.335-1.048,1.755-1.755c0.397-0.703,0.503-1.287,0.321-1.751c-0.183-0.464-0.6-0.694-1.247-0.694
			c-0.653,0-1.354,0.23-2.1,0.694c-0.747,0.464-1.324,1.048-1.721,1.751c-0.391,0.707-0.505,1.291-0.338,1.755
			C165.359,65.331,165.769,65.561,166.419,65.561"/>
	</g>
	<g>
		<defs>
			<rect id="SVGID_10_" x="-109" y="-222" width="792" height="612"/>
		</defs>
		<clipPath id="SVGID_11_">
			<use xlink:href="#SVGID_10_"  overflow="visible"/>
		</clipPath>
		<path clip-path="url(#SVGID_11_)" fill="#00622E" d="M316.443,70.419c-0.854-0.476-1.952-0.719-3.301-0.719
			c-1.152,0-2.369,0.312-3.657,0.925c-1.295,0.611-2.588,1.4-3.9,2.369c-1.306,0.972-2.61,2.083-3.899,3.354
			c-1.289,1.26-2.506,2.547-3.658,3.846c-2.738,3.05-5.453,6.525-8.147,10.438c-0.126,0-0.229-0.019-0.33-0.06
			c-0.098-0.035-0.206-0.062-0.327-0.062l1.664-2.963c0.082-0.153,0.329-0.543,0.746-1.153c0.418-0.612,0.912-1.354,1.488-2.223
			c0.577-0.872,1.2-1.801,1.877-2.79c0.67-0.987,1.316-1.934,1.93-2.846c0.614-0.909,1.158-1.72,1.635-2.431
			c0.479-0.713,0.817-1.207,1.013-1.481c0.952-0.947,2.165-2.137,3.636-3.56c1.465-1.423,3.012-2.972,4.641-4.654
			c1.624-1.676,3.282-3.439,4.966-5.276c1.688-1.836,3.247-3.622,4.67-5.363c1.43-1.736,2.659-3.39,3.688-4.955
			c1.034-1.558,1.729-2.912,2.082-4.057c0.121-0.354,0.102-0.72-0.053-1.095c-0.165-0.375-0.4-0.682-0.718-0.918
			c-0.318-0.24-0.725-0.376-1.218-0.417c-0.5-0.041-1.007,0.098-1.52,0.417c-1.111,0.672-2.423,1.763-3.929,3.288
			c-1.506,1.524-3.124,3.313-4.849,5.363c-1.729,2.055-3.505,4.301-5.328,6.731c-1.826,2.429-3.617,4.893-5.383,7.383
			c-1.765,2.487-3.453,4.942-5.059,7.347c-0.295,0.441-0.577,0.871-0.859,1.3c-1.8,1.754-3.664,3.048-5.598,3.858
			c-2.063,0.871-4.154,1.396-6.282,1.571c-2.12,0.183-4.237,0.114-6.362-0.205c-2.123-0.319-4.205-0.681-6.252-1.095
			c-2.041-0.416-2.636-1.234-2.754-1.328c-1.088-0.877-3.857-3.96-5.563-3.843c-1.271,0.085-2.459,0.476-3.571,1.188
			c-1.111,0.713-9.27,8.93-10.283,9.719c-1.011,0.793-1.958,1.523-2.855,2.192c-0.891,0.673-1.715,1.013-2.468,1.013
			c-0.24,0-0.376-0.399-0.417-1.188c-0.041-0.79,5.37-8.5,5.8-9.429c0.482-1.041,0.423-2.334-0.036-3.24
			c-0.459-0.912-1.242-1.482-2.346-1.727c-0.801-0.158-1.801-0.049-3.013,0.326c-1.206,0.375-4.623,2.834-5.953,3.682
			c-1.494,0.94-3.87,2.824-5.394,3.729c-1.529,0.912-3.018,1.818-4.464,2.729c-1.448,0.906-2.807,1.748-4.078,2.519
			c-1.27,0.771-2.34,1.354-3.212,1.747c0.16-0.313,0.695-0.924,1.607-1.836c0.912-0.911,1.971-1.959,3.182-3.148
			c1.21-1.18,2.468-2.457,3.783-3.82c1.305-1.36,2.476-2.666,3.506-3.913c1.035-1.24,1.805-2.369,2.323-3.376
			c0.512-1.007,0.594-1.77,0.241-2.284c-0.399-0.512-1.152-0.581-2.265-0.206c-1.111,0.379-2.388,1.026-3.841,1.954
			c-1.447,0.93-2.952,2.006-4.517,3.237c-0.536,0.416-1.053,0.824-1.56,1.227c-0.141,0.061-0.288,0.161-0.434,0.313
			c-0.412,0.348-0.823,0.682-1.235,1.022c-0.389,0.319-0.771,0.625-1.148,0.931c-0.012,0.014-0.023,0.022-0.035,0.035
			c-4.133,3.354-7.93,6.112-11.388,8.264c-1.748,1.113-3.471,2.08-5.177,2.906c-1.706,0.829-3.253,1.379-4.644,1.631
			c-1.385,0.26-2.545,0.158-3.48-0.293c-0.929-0.455-1.494-1.437-1.694-2.938c-0.118-0.552-0.077-1.206,0.117-1.956
			c2.383-0.313,4.577-0.836,6.575-1.564c2-0.742,3.802-1.59,5.39-2.553c1.583-0.972,2.942-1.994,4.07-3.083
			c1.136-1.089,2.025-2.155,2.683-3.202c0.653-1.051,1.06-2.017,1.219-2.907c0.158-0.893,0.041-1.634-0.354-2.221
			c-0.558-0.795-1.37-1.265-2.441-1.423c-1.07-0.155-2.297-0.072-3.659,0.265c-1.37,0.335-2.824,0.887-4.347,1.656
			c-1.523,0.777-3.018,1.689-4.465,2.763c-1.159,0.857-2.253,1.785-3.282,2.797c-0.43,0.336-1.141,0.871-2.129,1.619
			c-1.13,0.853-2.454,1.806-3.96,2.875c-1.505,1.066-3.088,2.164-4.729,3.287c-1.648,1.127-3.165,2.155-4.552,3.084
			c-1.389,0.931-2.56,1.685-3.513,2.252c-0.952,0.578-1.465,0.823-1.55,0.741c-0.074-0.075,0.332-0.634,1.221-1.655
			c0.895-1.032,1.994-2.297,3.303-3.797c1.314-1.498,2.691-3.11,4.138-4.83c1.448-1.724,2.676-3.322,3.688-4.807
			c1.013-1.479,1.659-2.704,1.937-3.675c0.275-0.966-0.083-1.446-1.072-1.446c-0.794,0-1.888,0.471-3.27,1.417
			c-1.392,0.947-2.959,2.117-4.706,3.5c-1.742,1.382-3.577,2.865-5.506,4.449c-1.924,1.58-3.777,2.981-5.56,4.209
			c-2.5,1.896-4.758,3.396-6.782,4.501c-2.028,1.111-3.764,1.91-5.212,2.398c-1.446,0.502-2.6,0.714-3.452,0.66
			c-0.854-0.066-1.336-0.328-1.453-0.806c-0.118-0.437,0.259-1.225,1.13-2.373c0.869-1.146,1.94-2.458,3.216-3.94
			c1.265-1.483,2.584-3.028,3.954-4.65c1.365-1.625,2.5-3.13,3.391-4.544c0.897-1.397,1.385-2.575,1.486-3.521
			c0.099-0.95-0.465-1.502-1.695-1.66c-1.305-0.158-2.545-0.006-3.688,0.442c-1.154,0.457-2.288,1.097-3.423,1.928
			c-1.13,0.829-2.289,1.789-3.483,2.871c-1.188,1.096-2.442,2.188-3.75,3.295c-0.08,0.068-0.138,0.142-0.186,0.205
			c-2.253,1.734-4.864,3.483-7.776,5.213c-1.341,0.804-2.848,1.652-4.471,2.529c-1.629,0.874-3.429,1.776-5.359,2.669
			c-1.958,0.906-4.049,1.813-6.211,2.688c-1.701,0.693-3.489,1.363-5.341,2.001c0.841-0.855,1.617-1.636,2.335-2.36
			c1.111-1.123,2.07-2.099,2.935-2.994c0.894-0.929,1.759-1.865,2.571-2.765c0.829-0.929,1.662-1.881,2.494-2.833
			c0.858-0.992,1.759-2.083,2.684-3.251c0.951-1.187,1.998-2.539,3.122-4.017c0.682-0.893,1.064-1.653,1.156-2.329
			c0.114-0.748-0.056-1.306-0.5-1.66c-0.286-0.229-0.662-0.347-1.126-0.347c-0.202,0-0.419,0.019-0.654,0.06
			c-0.706,0.142-1.498,0.518-2.347,1.136c-0.876,0.662-1.623,1.246-2.3,1.78c-0.735,0.577-1.483,1.189-2.23,1.814
			c-1.653,1.428-3.523,2.928-5.564,4.474c-2.041,1.543-4.194,3.028-6.383,4.43c-2.205,1.413-4.446,2.677-6.646,3.777
			c-2.219,1.101-4.354,1.931-6.348,2.47c-1.512,0.4-2.953,0.612-4.276,0.612c-0.412,0-0.824-0.021-1.218-0.06
			c-1.406-0.141-2.624-0.642-3.623-1.494c5.782-2.89,11.412-5.858,16.734-8.824c5.448-3.045,10.566-6.094,15.201-9.082
			c4.629-2.988,7.705-5.131,11.268-7.895c3.591-2.789,6.523-5.43,8.715-7.847c2.218-2.442,3.659-4.682,4.282-6.683
			c0.659-2.092,0.271-3.881-1.165-5.31c-1.135-1.13-2.735-1.808-4.752-1.994c-0.524-0.048-1.065-0.073-1.618-0.073
			c-1.554,0-3.265,0.189-5.107,0.571c-2.475,0.512-5.194,1.366-8.07,2.518c-2.883,1.164-5.852,2.584-8.817,4.219
			c-2.983,1.647-4.889,2.735-7.816,4.764c-2.921,2.023-5.719,4.2-8.332,6.488c-2.606,2.278-5.006,4.676-7.13,7.118
			c-2.13,2.452-3.9,4.947-5.264,7.404c-1.37,2.479-2.289,4.955-2.718,7.365c-0.417,2.326-0.276,4.561,0.424,6.662
			c-7.659,4.246-20.165,9.604-24.453,11.006c-2.76,0.898-7.012,1.904-12.124,2.758c-3.829,0.635-5.677,0.764-9.157,0.938
			c-0.667,0.039-1.343,0.055-2,0.055c-2.703,0-5.294-0.3-7.685-0.899c-3.158-0.787-5.859-1.946-8.018-3.45
			c-2.159-1.515-3.97-3.254-5.38-5.166c-1.408-1.918-2.503-3.981-3.25-6.13c-0.758-2.172-1.305-3.465-1.634-5.564
			c-0.324-2.095-0.495-4.102-0.506-5.96c-0.012-1.878,0.017-3.493,0.093-4.812l-0.829-0.069c-0.176,1.429-0.258,3.158-0.258,5.14
			c0,1.987,0.175,4.125,0.535,6.342c0.358,2.223,0.947,3.642,1.759,5.91c0.811,2.284,1.97,4.465,3.441,6.473
			c1.476,2.016,3.353,3.812,5.576,5.354c2.235,1.547,4.966,2.696,8.121,3.434c2.721,0.631,5.651,0.945,8.715,0.945
			c1.364,0,2.788-0.063,4.218-0.186c5.906-0.518,12.37-1.824,16.812-2.988c5.891-1.537,19.065-6.968,27.235-11.094
			c0.172,0.191,0.4,0.436,0.694,0.729c0.441,0.437,1.057,0.871,1.817,1.273c0.766,0.408,1.74,0.736,2.895,0.984
			c0.706,0.152,1.5,0.234,2.368,0.234c0.562,0,1.162-0.035,1.791-0.096c1.595-0.163,3.459-0.6,5.548-1.3
			c2.088-0.697,4.487-1.785,7.135-3.24c2.63-1.442,5.623-3.351,8.9-5.683c2.306-1.635,4.8-3.569,7.465-5.781
			c-0.577,0.688-1.153,1.357-1.721,2.017c-1.506,1.741-3.068,3.489-4.656,5.206c-1.583,1.713-3.194,3.389-4.789,4.994
			c-1.588,1.588-3.246,3.213-4.923,4.813c-3.324,1.082-6.706,2.049-10.064,2.882c-3.253,0.813-6.619,1.631-9.994,2.442
			c-3.246,0.781-6.377,1.6-9.336,2.436c-2.983,0.839-5.73,1.812-8.164,2.881c-3.218,1.406-4.99,2.253-7.607,3.906
			c-2.612,1.646-4.823,3.334-6.565,5.013c-1.765,1.694-3.053,3.371-3.824,4.992c-0.805,1.686-0.941,3.231-0.417,4.595
			c0.582,1.605,1.77,2.653,3.524,3.119c0.829,0.216,1.776,0.329,2.803,0.329c1.044,0,2.209-0.113,3.456-0.341
			c2.441-0.441,5.352-1.196,8.453-2.416c3.105-1.226,5.141-2.131,8.588-3.926c2.881-1.483,5.811-3.226,8.706-5.172
			c2.887-1.94,5.776-4.052,8.577-6.275c2.799-2.219,5.564-4.561,8.205-6.949c2.618-2.362,5.153-4.773,7.548-7.152
			c2.588-0.867,5.191-1.82,7.747-2.847c2.605-1.026,5.276-2.228,7.941-3.563c2.658-1.33,5.436-2.896,8.241-4.658
			c2.666-1.672,5.471-3.647,8.33-5.871c0.146-0.098,0.277-0.199,0.352-0.27c1.788-1.461,3.577-2.529,5.203-3.638
			c1.627-1.104,2.968-1.893,4.021-2.37c1.048-0.476,1.694-0.577,1.929-0.299c0.242,0.281-0.134,1.035-1.128,2.259
			c-1.189,1.458-2.562,2.988-4.107,4.588c-1.547,1.601-2.911,3.187-4.105,4.75c-1.189,1.56-2.019,3.035-2.5,4.417
			c-0.471,1.383-0.254,2.568,0.658,3.553c0.83,0.912,2.054,1.479,3.659,1.724c1.605,0.233,3.424,0.13,5.441-0.331
			c2.024-0.451,4.141-1.27,6.341-2.458c2.2-1.185,4.312-2.746,6.336-4.688c1.823-1.735,3.442-3.322,4.847-4.765
			c1.412-1.444,2.665-2.751,3.753-3.916c1.089-1.164,2.059-2.19,2.918-3.082c0.852-0.89,1.635-1.672,2.346-2.341
			c0.078-0.035-0.146,0.246-0.681,0.858c-0.536,0.612-1.253,1.423-2.142,2.429c-0.894,1.013-1.906,2.165-3.035,3.471
			c-1.13,1.3-2.241,2.641-3.335,4.001c-1.089,1.37-2.112,2.698-3.065,4.004c-0.954,1.306-1.694,2.458-2.23,3.466
			c-0.535,1.006-0.794,1.829-0.77,2.463c0.011,0.631,0.441,0.949,1.276,0.949c0.953,0,2.162-0.371,3.63-1.101
			c1.471-0.729,3.045-1.66,4.729-2.789c1.688-1.124,3.4-2.351,5.148-3.698c1.747-1.348,3.37-2.642,4.882-3.89
			c0.517-0.423,1-0.824,1.47-1.222c-0.047,0.075-0.094,0.146-0.132,0.221c-0.815,1.436-1.35,2.912-1.609,4.415
			c-0.259,1.505-0.106,2.963,0.447,4.385c0.835,2.138,2.195,3.374,4.077,3.708c1.881,0.334,4.247-0.105,7.083-1.334
			c2.835-1.225,6.105-3.158,9.817-5.807c3.706-2.646,7.785-5.873,12.229-9.672c1.371-1.094,2.654-2.065,3.832-2.898
			c1.851-1.307,3.283-2.076,4.322-2.313c0.946-0.24,1.264-0.123,0.946,0.354c-0.317,0.476-1.012,1.197-2.082,2.164
			c-1.07,0.965-2.406,2.124-4.012,3.471c-1.612,1.342-3.228,2.764-4.853,4.264c-1.629,1.508-3.147,3.034-4.552,4.594
			c-1.406,1.564-2.471,3.035-3.183,4.416c-0.194,0.361-0.264,0.74-0.206,1.131c0.059,0.395,0.218,0.726,0.471,0.979
			c0.259,0.252,0.588,0.424,0.982,0.498c0.4,0.082,0.874,0,1.429-0.232c0.994-0.437,2.171-1.143,3.542-2.131
			c1.37-0.986,2.847-2.088,4.43-3.293c1.588-1.199,3.246-2.431,4.97-3.67c1.729-1.25,3.412-2.348,5.059-3.295
			c1.647-0.949,6.229-4.041,7.718-4.578c1.488-0.529,2.835-1.676,4.023-1.441c0.477,0.126,0.812,0.406,1.012,0.861
			c0.2,0.451,0.047,1.139-0.123,1.703c-0.201,0.642-6.301,8.484-6.418,9.221c-0.13,0.822-0.1,1.246,0.012,2.187
			c0.073,0.679,0.447,1.206,0.699,1.7c0.259,0.496,0.689,0.799,1.283,0.919c1.388,0.315,2.671,0.205,3.841-0.325
			c1.165-0.533,2.276-1.187,3.329-1.959c1.054-0.77,9.183-8.979,10.195-9.693c1.011-0.713,2.029-1.104,3.065-1.183
			c1.388-0.082,3.247,3.041,4.671,3.953c0.64,0.417,1.963,1.36,2.553,1.531c1.811,0.532,3.287,0.593,5.352,0.812
			c2.059,0.217,4.225,0.129,6.483-0.271c2.264-0.395,4.61-1.211,7.049-2.458c1.332-0.675,2.687-1.552,4.067-2.622
			c-0.418,0.628-0.824,1.259-1.211,1.852c-1.289,1.994-2.351,3.717-3.184,5.159c-0.829,1.44-1.365,2.458-1.605,3.052
			c-0.034,0.086-0.112,0.256-0.205,0.536c-0.102,0.277-0.137,0.611-0.127,1.007c0.025,0.395,0.156,0.782,0.391,1.157
			c0.242,0.376,0.693,0.683,1.367,0.918c1.351,0.472,2.939,0.669,4.761,0.587c1.832-0.074,3.731-0.396,5.715-0.975
			c1.981-0.571,4.011-1.354,6.069-2.342c2.064-0.987,4.007-2.152,5.836-3.492c1.823-1.348,3.468-2.85,4.936-4.51
			c1.472-1.656,2.618-3.418,3.453-5.282c0.355-0.823,0.547-1.683,0.564-2.574c0.018-0.89-0.159-1.708-0.535-2.458
			C317.915,71.502,317.297,70.89,316.443,70.419 M308.144,62.736c0.835-1.123,1.719-2.281,2.647-3.464
			c0.936-1.19,1.848-2.342,2.741-3.471c0.888-1.124,1.693-2.064,2.405-2.818c-0.199,0.319-0.699,1.022-1.519,2.108
			c-0.813,1.085-1.74,2.281-2.794,3.587c-1.053,1.307-2.094,2.588-3.124,3.854c-1.034,1.265-1.847,2.253-2.443,2.963
			C306.62,64.784,307.313,63.866,308.144,62.736 M91.359,88.178c-0.412-1.682-0.391-3.482,0.064-5.357
			c0.5-2.094,1.401-4.26,2.683-6.437c1.288-2.198,2.929-4.43,4.89-6.636c1.974-2.218,4.181-4.398,6.557-6.494
			c2.376-2.082,4.941-4.105,7.624-6.01c2.671-1.894,4.312-2.872,7.012-4.424c2.706-1.565,5.405-2.925,8.017-4.048
			c2.612-1.13,5.082-1.995,7.335-2.569c2.031-0.524,3.889-0.782,5.542-0.782c0.165,0,0.329,0.003,0.493,0.009
			c1.719,0.06,3.095,0.489,4.095,1.278c0.712,0.565,0.86,1.448,0.447,2.682c-0.441,1.354-1.552,3.035-3.299,5.001
			c-1.772,1.994-4.242,4.288-7.335,6.835c-3.101,2.546-5.825,4.559-10.219,7.506c-4.406,2.947-9.535,6.125-15.23,9.418
			C104.436,81.384,98.159,84.761,91.359,88.178 M105.059,102.572c-2.106,1.925-4.394,3.894-6.803,5.865
			c-2.391,1.963-4.973,3.922-7.68,5.818c-2.711,1.899-5.614,3.676-8.618,5.282c-3.117,1.662-4.911,2.351-7.747,3.491
			c-2.808,1.144-5.405,1.988-7.64,2.484c-1.524,0.32-2.889,0.487-4.048,0.487c-0.518,0-1.006-0.03-1.447-0.101
			c-1.353-0.195-2.2-0.748-2.583-1.676c-0.229-0.584-0.229-1.291,0.012-2.102c0.259-0.852,0.736-1.775,1.424-2.742
			c0.7-0.975,1.617-2.007,2.73-3.058c1.118-1.054,2.417-2.103,3.852-3.117c1.441-1.021,3.047-2.021,4.777-2.974
			c1.729-0.945,2.395-1.123,4.324-1.918c2.723-1.109,5.612-2.127,8.596-3.01c3.012-0.898,6.104-1.758,9.18-2.553
			c3.104-0.809,6.183-1.602,9.235-2.389c2.404-0.631,4.765-1.301,7.03-2.014C108.159,99.736,106.618,101.155,105.059,102.572
			 M198.801,77.23c1.253-1.142,2.548-2.176,3.9-3.113c1.347-0.921,2.577-1.662,3.689-2.221c1.112-0.549,2.05-0.89,2.829-1.007
			c0.771-0.116,1.215,0.06,1.336,0.537c0.158,0.71-0.136,1.716-0.889,3.023c-0.753,1.306-1.9,2.641-3.424,4.001
			c-1.529,1.362-3.411,2.628-5.652,3.792c-2.247,1.164-4.754,1.966-7.53,2.408c0.518-1.267,1.289-2.537,2.32-3.803
			C196.413,79.583,197.555,78.377,198.801,77.23 M316.18,76.585c-0.595,1.499-1.775,3.124-3.541,4.858
			c-1.766,1.74-3.858,3.33-6.276,4.768c-2.425,1.449-4.995,2.614-7.706,3.504c-2.719,0.887-5.329,1.233-7.829,1.034
			c0.877-1.224,1.875-2.546,3.006-3.972c1.129-1.424,2.353-2.854,3.658-4.299c1.31-1.441,2.659-2.836,4.048-4.178
			c1.395-1.347,2.768-2.518,4.135-3.529c1.371-1.004,2.684-1.807,3.93-2.398c1.254-0.594,2.389-0.871,3.419-0.83
			c0.6,0.041,1.152,0.176,1.67,0.416c0.518,0.237,0.93,0.571,1.247,1.006c0.317,0.436,0.506,0.96,0.564,1.572
			C316.567,75.148,316.455,75.832,316.18,76.585"/>
	</g>
	<g>
		<defs>
			<rect id="SVGID_12_" x="-109" y="-222" width="792" height="612"/>
		</defs>
		<clipPath id="SVGID_13_">
			<use xlink:href="#SVGID_12_"  overflow="visible"/>
		</clipPath>
		<path clip-path="url(#SVGID_13_)" fill="#00622E" d="M353.697,78.419c-0.06-0.192-0.129-0.329-0.206-0.411
			c-0.282-0.16-0.601-0.06-0.952,0.294c-5.083,4.269-9.683,7.689-13.807,10.259c-1.747,1.106-3.472,2.075-5.184,2.905
			c-1.699,0.83-3.247,1.379-4.638,1.632c-1.386,0.258-2.551,0.157-3.479-0.297c-0.936-0.451-1.501-1.433-1.699-2.935
			c-0.117-0.554-0.076-1.206,0.122-1.96c2.378-0.309,4.571-0.838,6.577-1.568c1.997-0.73,3.794-1.577,5.382-2.549
			c1.589-0.969,2.947-1.994,4.077-3.083c1.129-1.085,2.023-2.158,2.678-3.2c0.648-1.05,1.063-2.016,1.225-2.904
			c0.157-0.894,0.034-1.636-0.36-2.229c-0.553-0.789-1.371-1.259-2.44-1.417c-1.07-0.16-2.291-0.072-3.659,0.262
			c-1.37,0.338-2.817,0.89-4.341,1.66c-1.529,0.776-3.019,1.694-4.465,2.757c-1.447,1.067-2.801,2.258-4.048,3.561
			c-1.246,1.306-2.281,2.679-3.097,4.117c-0.81,1.448-1.345,2.918-1.604,4.418c-0.261,1.502-0.111,2.967,0.44,4.39
			c0.835,2.136,2.2,3.37,4.082,3.707c1.883,0.335,4.241-0.113,7.076-1.335c2.835-1.225,6.112-3.164,9.821-5.813
			c3.709-2.647,7.782-5.871,12.227-9.662C353.669,78.818,353.754,78.62,353.697,78.419 M326.647,82.631
			c1.037-1.265,2.179-2.471,3.426-3.613c1.253-1.151,2.548-2.187,3.899-3.117c1.348-0.928,2.576-1.662,3.688-2.221
			c1.105-0.556,2.054-0.89,2.824-1.007c0.775-0.117,1.218,0.06,1.341,0.536c0.16,0.71-0.142,1.716-0.895,3.023
			c-0.753,1.306-1.895,2.635-3.424,3.998c-1.522,1.365-3.412,2.631-5.652,3.795c-2.241,1.164-4.754,1.966-7.523,2.404
			C324.85,85.161,325.621,83.902,326.647,82.631"/>
	</g>
	<g>
		<defs>
			<rect id="SVGID_14_" x="-109" y="-222" width="792" height="612"/>
		</defs>
		<clipPath id="SVGID_15_">
			<use xlink:href="#SVGID_14_"  overflow="visible"/>
		</clipPath>
		<path clip-path="url(#SVGID_15_)" fill="#00622E" d="M334.079,64.014c0.266-0.29,0.877-0.7,1.824-1.243
			c0.945-0.54,2.059-1.136,3.341-1.786c1.275-0.653,2.646-1.325,4.117-2.019c1.465-0.695,2.848-1.313,4.146-1.852
			c1.294-0.537,2.424-0.979,3.395-1.307c0.972-0.34,1.618-0.482,1.937-0.429c0.788,0.13,1.146,0.436,1.088,0.925
			c-0.059,0.48-0.357,0.968-0.899,1.47c-0.538,0.492-1.224,0.922-2.046,1.281c-0.83,0.36-1.602,0.483-2.313,0.366
			c-0.323-0.047-0.938,0.07-1.841,0.357c-0.912,0.29-1.959,0.653-3.145,1.079c-1.187,0.432-2.397,0.893-3.634,1.385
			c-1.229,0.495-2.341,0.918-3.335,1.265c-0.987,0.354-1.741,0.596-2.259,0.729"/>
	</g>
	<g>
		<defs>
			<rect id="SVGID_16_" x="-109" y="-222" width="792" height="612"/>
		</defs>
		<clipPath id="SVGID_17_">
			<use xlink:href="#SVGID_16_"  overflow="visible"/>
		</clipPath>
		<path clip-path="url(#SVGID_17_)" fill="#00622E" d="M346.032,90.831h2.111c1.054,0,1.912,0.185,2.57,0.541
			c0.659,0.353,0.988,0.813,0.988,1.378c0,0.443-0.215,0.833-0.642,1.18c-0.424,0.344-1.096,0.584-2.001,0.727l2.837,2.853h-1.529
			l-2.706-2.748h-0.301v2.748h-1.329L346.032,90.831L346.032,90.831z M347.361,91.643v2.325c1.965,0.029,2.954-0.358,2.954-1.167
			c0-0.287-0.118-0.518-0.35-0.697c-0.23-0.177-0.534-0.299-0.916-0.365C348.668,91.674,348.104,91.643,347.361,91.643"/>
	</g>
	<g>
		<defs>
			<rect id="SVGID_18_" x="-109" y="-222" width="792" height="612"/>
		</defs>
		<clipPath id="SVGID_19_">
			<use xlink:href="#SVGID_18_"  overflow="visible"/>
		</clipPath>
		<path clip-path="url(#SVGID_19_)" fill="#00622E" d="M348.721,99.57c-2.977,0-5.399-2.422-5.399-5.397
			c0-2.975,2.424-5.401,5.399-5.401c2.977,0,5.396,2.427,5.396,5.401C354.116,97.148,351.697,99.57,348.721,99.57 M348.721,89.479
			c-2.588,0-4.699,2.107-4.699,4.694c0,2.588,2.111,4.695,4.699,4.695s4.694-2.107,4.694-4.695
			C353.415,91.586,351.309,89.479,348.721,89.479"/>
	</g>
	<g>
		<defs>
			<rect id="SVGID_20_" x="-109" y="-222" width="792" height="612"/>
		</defs>
		<clipPath id="SVGID_21_">
			<use xlink:href="#SVGID_20_"  overflow="visible"/>
		</clipPath>
		<path clip-path="url(#SVGID_21_)" fill="#00358E" d="M443.122,87.876c-1.505,0-3.009-0.022-4.513-0.046l-0.469-0.007
			c-2.274-0.035-4.425-0.677-6.39-1.908c-0.262-0.164-0.56-0.274-0.875-0.392c-0.126-0.047-0.251-0.092-0.375-0.143
			c-0.504-0.206-0.95-0.476-1.382-0.736c-0.197-0.121-0.396-0.239-0.6-0.353c-0.566-0.313-0.993-0.759-1.405-1.188
			c-0.144-0.148-0.282-0.295-0.43-0.437c-1.153-1.095-2.488-2.413-3.632-3.876l-0.073-0.094c-0.255-0.327-0.518-0.665-0.733-1.043
			c-0.297-0.52-0.671-0.984-1.067-1.478c-0.465-0.577-0.944-1.176-1.306-1.88c-0.584-1.143-1.155-2.396-1.374-3.819
			c-0.1-0.654-0.035-1.225,0.195-1.744c-0.256,0.037-0.514,0.14-0.784,0.249l-0.096,0.039c-0.955,0.383-1.847,0.57-2.723,0.57
			l-0.164-0.001c-0.421,0-0.841,0.041-1.261,0.081c-0.452,0.042-0.905,0.084-1.359,0.084c-0.117,0-0.235-0.002-0.354-0.008
			c-0.511-0.026-1.024-0.036-1.536-0.036c-0.734,0-1.468,0.02-2.202,0.039c-0.743,0.02-1.485,0.039-2.229,0.039
			c-0.237,0-0.72-0.006-0.724-0.006c-0.164,0-0.291,0.009-0.419,0.017c-0.151,0.011-0.305,0.021-0.458,0.021
			c-0.592-0.005-0.983-0.302-1.082-0.794c-0.104-0.537,0.163-0.988,0.696-1.18c0.066-0.023,0.1-0.032,0.128-0.049
			c0.412-0.666,1.124-0.749,1.62-0.749h0.026c-0.046-0.137-0.065-0.286-0.056-0.442c0.043-0.654,0.521-1.049,1.274-1.054
			l0.622-0.001c0.474,0,0.946,0.003,1.42,0.012h0.002c0.333,0,0.576-0.053,0.779-0.16c0.586-0.314,1.232-0.461,2.032-0.461
			l0.683,0.002c0.688,0,1.422,0.039,2.104,0.499c0.012,0.001,0.021,0.001,0.033,0.001c0.106,0,0.219-0.033,0.328-0.066
			c1.163-0.352,2.266-0.884,3.334-1.399c0.555-0.268,1.11-0.537,1.676-0.783c0.613-0.266,1.235-0.665,1.958-1.254
			c0.266-0.217,0.532-0.42,0.885-0.525c0.769-0.226,1.261-0.723,1.55-1.564c0.254-0.741,0.494-1.488,0.733-2.235
			c0.357-1.11,0.729-2.258,1.142-3.377c0.234-0.643,0.182-1.362,0.124-2.124c-0.02-0.25-0.037-0.5-0.046-0.748
			c-0.054-1.586-0.112-3.383,0.432-5.131c0.114-0.363,0.211-0.734,0.286-1.103c0.299-1.455,1.106-2.677,2.543-3.844
			c1.045-0.849,2.202-1.408,3.498-1.999c0.45-0.205,0.911-0.385,1.373-0.563c0.767-0.298,1.49-0.579,2.167-0.981
			c0.847-0.504,1.471-1.098,1.907-1.816c0.271-0.446,0.321-0.969,0.378-1.522c0.016-0.152,0.029-0.303,0.05-0.454
			c0.049-0.379,0.059-0.762,0.067-1.145c0.008-0.237,0.014-0.474,0.027-0.71c0.014-0.22-0.049-0.389-0.201-0.55
			c-0.484-0.516-0.845-1.098-1.192-1.661l-0.271-0.435c-0.58-0.909-0.591-1.924-0.033-3.015c0.088-0.177,0.127-0.334,0.126-0.524
			c-0.008-0.853,0.003-1.979,0.159-3.104c0.188-1.368,0.93-2.537,2.208-3.477c1.263-0.924,2.784-1.393,4.521-1.393
			c0.119,0,0.238,0.002,0.36,0.007c0.768,0.03,1.475,0.316,2.046,0.825c0.776,0.685,1.394,1.36,1.885,2.063
			c0.75,1.073,0.841,2.264,0.929,3.415l0.012,0.159c0.021,0.265,0.02,0.533,0.017,0.802c-0.003,0.153-0.005,0.307,0,0.46
			c0.007,0.278,0.082,0.521,0.241,0.786c0.594,0.959,0.41,1.967,0.186,2.739c-0.193,0.663-0.564,1.293-1.134,1.927
			c-0.251,0.28-0.358,0.576-0.358,0.985c-0.002,0.7,0.062,1.415,0.124,2.107c0.034,0.386,0.068,0.771,0.093,1.158
			c0.03,0.493,0.406,0.845,0.857,1.222c0.926,0.774,2.088,1.243,3.113,1.657c2.133,0.862,4.563,2.04,6.427,4.237
			c0.398,0.471,0.719,1.03,0.978,1.709c0.788,2.067,1.167,4.279,1.124,6.572c-0.018,1.005,0.121,2.04,0.411,3.075l0.041,0.148
			c0.438,1.569,0.892,3.192,1.45,4.744c0.253,0.704,0.659,1.328,1.091,1.99l0.213,0.327c0.038,0.059,0.104,0.111,0.312,0.179
			c0.871,0.289,1.556,0.599,2.149,0.977c0.915,0.585,2.141,1.314,3.502,1.764c0.067,0.022,0.206,0.065,0.328,0.17
			c0.343,0.292,0.74,0.422,1.288,0.422c0.322,0,0.649-0.042,0.975-0.082l0.525-0.061c0.388-0.04,0.771-0.078,1.149-0.078
			c0.615,0,1.128,0.101,1.608,0.319c0.274,0.126,0.607,0.187,1.021,0.187c0,0,0.567-0.008,0.802-0.008
			c0.383,0,1.343,0.012,1.343,0.012c0.328,0.002,0.813,0.052,1.202,0.453c0.312,0.32,0.418,0.721,0.303,1.134
			c0.119-0.002,0.521-0.012,0.521-0.012c0.271,0,1.076,0,1.375,0.87c0.087,0.065,0.137,0.104,0.179,0.145
			c0.257,0.248,0.378,0.57,0.328,0.882c-0.049,0.313-0.265,0.585-0.592,0.744c-0.279,0.132-0.558,0.147-0.739,0.147
			c-0.438-0.007-0.782-0.019-1.127-0.032c-0.455-0.017-0.91-0.033-1.364-0.033c-0.288,0-0.578,0.007-0.865,0.025
			c-0.802,0.052-1.591,0.062-2.528,0.062l-0.974-0.001c-0.382,0-0.764,0.001-1.146,0.009l-0.195,0.002
			c-0.931,0-1.851-0.125-2.74-0.246l-0.688-0.09c-0.478-0.061-0.916-0.229-1.341-0.391c-0.008-0.003-0.018-0.007-0.024-0.01
			c0.385,1.311,0.301,2.635,0.222,3.924l-0.022,0.366c-0.067,1.1-0.637,1.811-1.266,2.501c-0.416,0.457-0.896,0.811-1.358,1.152
			c-0.359,0.266-0.7,0.516-1.002,0.807c-0.362,0.347-0.73,0.688-1.097,1.025c-1.188,1.1-2.417,2.236-3.393,3.564
			c-1.074,1.464-2.415,2.703-3.882,3.584c-2.433,1.465-4.571,2.146-6.73,2.146l-0.414-0.005c-0.44,0-0.882,0.049-1.348,0.102
			c-0.368,0.039-0.734,0.08-1.104,0.098C446.326,87.846,444.831,87.876,443.122,87.876 M455.207,54.931
			c-0.063,0.386-0.146,0.747-0.229,1.101l-0.067,0.293c-0.32,1.409-0.542,2.868-0.756,4.279l-0.188,1.225
			c-0.035,0.237-0.061,0.475-0.083,0.714c-0.087,1.009,0.091,2,0.278,3.048c0.087,0.489,0.174,0.977,0.233,1.468
			c0.028,0.233,0.063,0.465,0.099,0.697c0.093,0.629,0.188,1.28,0.17,1.956c-0.009,0.246,0.021,0.499,0.093,0.774
			c0.067,0.259,0.178,0.259,0.214,0.259c0.039,0,0.105-0.009,0.2-0.054c0.353-0.167,0.688-0.341,0.929-0.613l0.606-0.687
			c0.476-0.535,0.95-1.071,1.403-1.625c0.579-0.711,1.239-1.221,2.006-1.545c-0.709-0.409-1.281-1.04-1.732-1.907
			c-0.285-0.545-0.535-1.103-0.783-1.661c-0.165-0.37-0.329-0.739-0.505-1.104c-0.815-1.701-1.36-3.595-1.716-5.962
			C455.338,55.329,455.283,55.115,455.207,54.931 M428.033,66.382c0.669,0.434,1.24,0.988,1.847,1.767
			c0.49,0.623,1.185,1.151,2.117,1.611c0.042,0.021,0.075,0.035,0.101,0.044c0.015-0.032,0.03-0.079,0.049-0.145
			c0.079-0.29,0.117-0.595,0.158-0.919c0.057-0.43,0.112-0.874,0.272-1.32c0.251-0.701,0.31-1.446,0.372-2.235l0.038-0.459
			c0.104-1.171,0.104-2.204-0.007-3.161l-0.009-0.064l0.011-0.064c0.096-0.666-0.039-1.328-0.27-2.117
			c-0.145-0.49-0.282-1.01-0.361-1.555c-0.039,0.07-0.069,0.141-0.087,0.214c-0.091,0.39-0.222,0.764-0.354,1.139
			c-0.116,0.33-0.232,0.66-0.316,1.004c-0.432,1.832-1.342,3.452-2.261,4.928C428.992,65.601,428.555,66.047,428.033,66.382"/>
	</g>
	<g>
		<defs>
			<rect id="SVGID_22_" x="-109" y="-222" width="792" height="612"/>
		</defs>
		<clipPath id="SVGID_23_">
			<use xlink:href="#SVGID_22_"  overflow="visible"/>
		</clipPath>
		<path clip-path="url(#SVGID_23_)" fill="#FFFFFF" d="M444.396,18.445c0.114,0,0.229,0.002,0.346,0.006
			c0.646,0.026,1.247,0.269,1.73,0.699c0.669,0.591,1.289,1.236,1.808,1.975c0.703,1.009,0.763,2.17,0.852,3.327
			c0.032,0.409,0.004,0.824,0.015,1.236c0.01,0.371,0.113,0.701,0.315,1.034c0.458,0.742,0.361,1.553,0.131,2.338
			c-0.192,0.658-0.573,1.229-1.026,1.733c-0.344,0.387-0.485,0.801-0.485,1.321c-0.002,1.104,0.147,2.195,0.218,3.296
			c0.044,0.708,0.548,1.166,1.036,1.573c0.957,0.801,2.094,1.272,3.248,1.738c2.341,0.946,4.555,2.118,6.229,4.097
			c0.396,0.465,0.678,0.997,0.893,1.563c0.784,2.055,1.133,4.181,1.092,6.385c-0.019,1.082,0.133,2.159,0.43,3.219
			c0.463,1.656,0.921,3.308,1.503,4.926c0.315,0.882,0.853,1.64,1.354,2.418c0.136,0.21,0.344,0.307,0.573,0.384
			c0.713,0.235,1.399,0.517,2.04,0.924c1.142,0.729,2.318,1.389,3.612,1.817c0.057,0.017,0.117,0.038,0.16,0.074
			c0.501,0.426,1.052,0.543,1.613,0.543c0.47,0,0.949-0.081,1.417-0.132c0.417-0.042,0.827-0.089,1.233-0.089
			c0.471,0,0.938,0.063,1.401,0.274c0.38,0.174,0.8,0.231,1.229,0.231c0.035,0,0.073,0,0.109-0.001
			c0.232-0.004,0.466-0.006,0.697-0.006c0.444,0,0.887,0.006,1.33,0.011c0.313,0.003,0.615,0.062,0.85,0.302
			c0.192,0.197,0.253,0.43,0.169,0.689c-0.084,0.266-0.304,0.348-0.556,0.35c-0.172,0.003-0.345,0.004-0.523,0.004
			c-0.184,0-0.374-0.001-0.577-0.001c0.093,0.233,0.242,0.257,0.386,0.257c0.037,0,0.074-0.001,0.108-0.001
			c0.677,0,1.353,0,2.027-0.021c0.051-0.002,0.102-0.003,0.149-0.003c0.425,0,0.778,0.089,0.924,0.604
			c0.029,0.108,0.186,0.177,0.28,0.269c0.296,0.284,0.237,0.637-0.136,0.819c-0.165,0.078-0.343,0.096-0.521,0.096
			c-0.027,0-0.054,0-0.081-0.001c-0.804-0.013-1.608-0.064-2.411-0.064c-0.298,0-0.597,0.006-0.894,0.026
			c-0.838,0.053-1.673,0.061-2.509,0.061c-0.318,0-0.64-0.001-0.96-0.001c-0.386,0-0.771,0.002-1.156,0.008
			c-0.063,0.002-0.125,0.002-0.188,0.002c-1.131,0-2.249-0.191-3.364-0.332c-0.601-0.076-1.175-0.363-1.761-0.557
			c-0.134-0.045-0.265-0.109-0.407-0.109c-0.028,0-0.059,0.003-0.089,0.009c0.806,1.622,0.629,3.311,0.528,5.013
			c-0.058,0.945-0.558,1.558-1.138,2.195c-0.689,0.76-1.607,1.234-2.338,1.936c-1.564,1.499-3.242,2.881-4.545,4.654
			c-1.013,1.381-2.283,2.58-3.734,3.449c-1.975,1.188-4.101,2.076-6.477,2.076c-0.085,0-0.17-0.001-0.256-0.003
			c-0.053-0.002-0.104-0.002-0.158-0.002c-0.824,0-1.645,0.16-2.474,0.199c-1.516,0.069-3.032,0.094-4.548,0.094
			c-1.658,0-3.315-0.026-4.974-0.053c-2.189-0.034-4.258-0.658-6.131-1.833c-0.419-0.262-0.886-0.395-1.331-0.573
			c-0.688-0.281-1.282-0.706-1.923-1.062c-0.688-0.381-1.175-1.014-1.731-1.549c-1.268-1.203-2.505-2.442-3.585-3.822
			c-0.27-0.349-0.549-0.696-0.767-1.077c-0.681-1.188-1.729-2.104-2.36-3.337c-0.603-1.175-1.125-2.36-1.326-3.667
			c-0.078-0.514-0.048-1.026,0.18-1.51c0.088-0.187,0.214-0.397,0.078-0.583c-0.072-0.099-0.164-0.128-0.264-0.128
			c-0.115,0-0.239,0.04-0.354,0.056c-0.353,0.049-0.678,0.19-1.005,0.32c-0.815,0.328-1.649,0.535-2.537,0.535
			c-0.025,0-0.052,0-0.078,0c-0.027,0-0.058-0.001-0.086-0.001c-0.875,0-1.742,0.165-2.62,0.165c-0.108,0-0.219-0.002-0.328-0.008
			c-0.521-0.026-1.041-0.036-1.561-0.036c-1.478,0-2.956,0.078-4.434,0.078c-0.235,0-0.47-0.002-0.704-0.006h-0.049
			c-0.282,0-0.566,0.038-0.85,0.038h-0.025c-0.266-0.002-0.507-0.092-0.563-0.391c-0.061-0.308,0.088-0.51,0.375-0.612
			c0.125-0.046,0.258-0.084,0.333-0.202c0.301-0.47,0.744-0.567,1.244-0.567c0.034,0,0.069,0.001,0.104,0.001
			c0.197,0.006,0.396,0.013,0.594,0.013c0.401,0,0.804-0.031,1.197-0.179c-0.145,0-0.291,0.009-0.436,0.009
			c-0.089,0-0.178-0.003-0.266-0.014c-0.461-0.054-0.748-0.361-0.723-0.737c0.026-0.384,0.286-0.586,0.778-0.588
			c0.208-0.001,0.416-0.002,0.624-0.002c0.469,0,0.938,0.003,1.405,0.011c0.015,0.001,0.028,0.001,0.044,0.001
			c0.346,0,0.679-0.058,0.979-0.218c0.567-0.303,1.168-0.403,1.799-0.403c0.04,0,0.08,0.001,0.119,0.001
			c0.077,0.002,0.154,0.002,0.231,0.002c0.108,0,0.221-0.001,0.331-0.001c0.632,0,1.255,0.029,1.825,0.414
			c0.103,0.068,0.209,0.093,0.318,0.093c0.158,0,0.322-0.051,0.487-0.101c1.768-0.535,3.363-1.463,5.043-2.195
			c0.755-0.328,1.436-0.804,2.076-1.326c0.219-0.179,0.439-0.353,0.71-0.432c0.972-0.287,1.557-0.945,1.879-1.881
			c0.638-1.86,1.188-3.752,1.871-5.602c0.357-0.975,0.146-2.037,0.107-3.063c-0.055-1.671-0.096-3.339,0.411-4.964
			c0.119-0.379,0.218-0.765,0.298-1.152c0.311-1.507,1.218-2.62,2.368-3.556c1.021-0.83,2.197-1.388,3.392-1.933
			c1.188-0.542,2.457-0.895,3.588-1.568c0.847-0.504,1.561-1.134,2.079-1.986c0.408-0.678,0.4-1.435,0.496-2.173
			c0.079-0.624,0.061-1.258,0.099-1.888c0.021-0.364-0.095-0.668-0.336-0.924c-0.571-0.606-0.967-1.33-1.408-2.022
			c-0.528-0.829-0.434-1.686-0.009-2.517c0.126-0.249,0.184-0.487,0.181-0.755c-0.009-1.016,0.016-2.029,0.154-3.033
			c0.186-1.348,0.944-2.359,2.009-3.142C441.434,18.817,442.87,18.445,444.396,18.445 M454.969,71.245
			c0.129,0,0.269-0.033,0.414-0.103c0.399-0.189,0.791-0.394,1.09-0.734c0.677-0.773,1.372-1.53,2.021-2.326
			c0.676-0.829,1.504-1.39,2.543-1.638c0.107-0.025,0.239-0.01,0.344-0.143c-0.085-0.169-0.246-0.179-0.379-0.225
			c-1.019-0.346-1.684-1.044-2.178-1.994c-0.473-0.9-0.844-1.839-1.28-2.751c-0.89-1.852-1.372-3.812-1.673-5.818
			c-0.092-0.612-0.273-1.091-0.699-1.503c-0.063-0.062-0.112-0.17-0.207-0.17c-0.01,0-0.021,0.001-0.032,0.004
			c-0.141,0.038-0.141,0.182-0.144,0.294c-0.025,0.709-0.21,1.39-0.367,2.076c-0.416,1.829-0.659,3.688-0.951,5.537
			c-0.038,0.248-0.063,0.496-0.087,0.745c-0.134,1.571,0.325,3.083,0.516,4.624c0.104,0.857,0.287,1.704,0.264,2.577
			c-0.011,0.312,0.032,0.614,0.106,0.913C454.377,71.02,454.636,71.245,454.969,71.245 M432.166,70.323
			c0.229,0,0.364-0.177,0.463-0.532c0.199-0.724,0.163-1.489,0.419-2.203c0.325-0.908,0.354-1.873,0.438-2.817
			c0.098-1.08,0.116-2.17-0.009-3.263c0.113-0.793-0.059-1.556-0.282-2.328c-0.201-0.684-0.378-1.39-0.404-2.114
			c-0.003-0.097,0.021-0.231-0.11-0.254c-0.008-0.001-0.016-0.002-0.023-0.002c-0.069,0-0.156,0.044-0.208,0.092
			c-0.292,0.274-0.577,0.571-0.668,0.965c-0.171,0.732-0.494,1.407-0.668,2.139c-0.409,1.735-1.268,3.281-2.201,4.78
			c-0.371,0.596-0.875,1.067-1.51,1.379c-0.345,0.169-0.254,0.289,0.009,0.428c0.846,0.45,1.487,1.108,2.077,1.862
			c0.602,0.766,1.412,1.321,2.29,1.753C431.931,70.285,432.059,70.323,432.166,70.323 M444.396,17.445
			c-1.845,0-3.465,0.501-4.813,1.489c-1.393,1.024-2.202,2.306-2.409,3.813c-0.16,1.151-0.172,2.303-0.164,3.178
			c0.001,0.108-0.019,0.187-0.072,0.295c-0.801,1.566-0.41,2.772,0.059,3.506c0.091,0.143,0.18,0.287,0.269,0.43
			c0.361,0.584,0.734,1.188,1.254,1.739c0.063,0.066,0.071,0.103,0.066,0.176c-0.015,0.245-0.021,0.489-0.028,0.733
			c-0.01,0.384-0.02,0.746-0.063,1.09c-0.021,0.156-0.036,0.313-0.052,0.469c-0.053,0.517-0.098,0.964-0.31,1.314
			c-0.392,0.646-0.96,1.183-1.735,1.644c-0.639,0.381-1.345,0.654-2.092,0.944c-0.458,0.178-0.932,0.361-1.398,0.575
			c-1.328,0.606-2.517,1.18-3.605,2.065c-1.511,1.228-2.399,2.58-2.718,4.132c-0.073,0.355-0.165,0.709-0.271,1.053
			c-0.572,1.833-0.511,3.674-0.456,5.298c0.01,0.256,0.028,0.513,0.048,0.771c0.053,0.705,0.103,1.372-0.097,1.913
			c-0.417,1.13-0.787,2.283-1.146,3.399c-0.239,0.743-0.479,1.486-0.731,2.224c-0.233,0.682-0.608,1.067-1.216,1.245
			c-0.44,0.131-0.766,0.377-1.062,0.618c-0.685,0.559-1.27,0.935-1.839,1.182c-0.579,0.252-1.146,0.526-1.693,0.791
			c-1.099,0.53-2.138,1.03-3.242,1.365c-0.042,0.013-0.08,0.025-0.114,0.036c-0.752-0.445-1.54-0.485-2.228-0.485l-0.169,0.001
			h-0.162l-0.212-0.001l-0.139-0.002c-0.873,0-1.614,0.171-2.271,0.521c-0.125,0.067-0.293,0.1-0.509,0.1
			c-0.499-0.009-0.975-0.012-1.449-0.012l-0.628,0.002c-1.233,0.006-1.726,0.823-1.771,1.521c0,0.003-0.001,0.005-0.001,0.008
			c-0.43,0.065-0.994,0.256-1.429,0.809c-0.757,0.304-1.128,0.97-0.979,1.73c0.144,0.732,0.731,1.191,1.536,1.199h0.005
			c0.195,0,0.358-0.011,0.521-0.021c0.119-0.009,0.237-0.017,0.356-0.017c0.271,0.004,0.512,0.006,0.753,0.006
			c0.748,0,1.495-0.02,2.243-0.039c0.729-0.02,1.461-0.039,2.189-0.039c0.554,0,1.047,0.012,1.509,0.034
			c0.126,0.007,0.253,0.01,0.381,0.01c0.485,0,0.953-0.044,1.405-0.087c0.424-0.04,0.824-0.078,1.214-0.078l0.073,0.001h0.091
			c0.936,0,1.879-0.195,2.886-0.597c-0.037,0.336-0.028,0.689,0.026,1.057c0.229,1.495,0.82,2.793,1.424,3.973
			c0.384,0.75,0.881,1.369,1.361,1.967c0.383,0.477,0.745,0.927,1.023,1.412c0.229,0.4,0.496,0.748,0.757,1.082l0.084,0.108
			c1.171,1.496,2.521,2.829,3.688,3.938c0.138,0.132,0.274,0.275,0.411,0.417c0.417,0.436,0.891,0.929,1.525,1.28
			c0.194,0.107,0.388,0.225,0.58,0.34c0.447,0.271,0.911,0.553,1.448,0.771c0.136,0.055,0.268,0.104,0.398,0.152
			c0.289,0.105,0.563,0.208,0.781,0.344c2.041,1.28,4.276,1.948,6.645,1.983l0.45,0.008c1.485,0.022,3.021,0.046,4.538,0.046
			c1.717,0,3.22-0.031,4.595-0.095c0.39-0.02,0.77-0.062,1.136-0.103c0.451-0.05,0.879-0.097,1.292-0.097l0.132,0.002
			c0.095,0.002,0.188,0.003,0.281,0.003c2.256,0,4.479-0.705,6.991-2.219c1.521-0.912,2.913-2.197,4.026-3.715
			c0.944-1.288,2.102-2.358,3.326-3.491c0.369-0.343,0.739-0.685,1.104-1.033c0.279-0.269,0.606-0.51,0.953-0.765
			c0.483-0.357,0.983-0.725,1.432-1.221c0.663-0.727,1.318-1.543,1.396-2.807l0.021-0.366c0.065-1.044,0.132-2.11-0.037-3.187
			c0.198,0.056,0.404,0.102,0.618,0.129c0.229,0.029,0.456,0.06,0.686,0.091c0.904,0.122,1.842,0.249,2.807,0.249l0.207-0.002
			c0.378-0.006,0.758-0.008,1.138-0.008l0.479,0.001h0.481c0.952,0,1.754-0.011,2.571-0.063c0.274-0.018,0.552-0.024,0.829-0.024
			c0.448,0,0.896,0.016,1.345,0.032c0.352,0.014,0.7,0.026,1.05,0.032l0.099,0.001c0.231,0,0.583-0.02,0.947-0.191
			c0.488-0.239,0.806-0.646,0.881-1.123c0.073-0.476-0.102-0.958-0.479-1.322c-0.031-0.031-0.067-0.063-0.106-0.094
			c-0.229-0.532-0.722-1.054-1.776-1.058c-0.043-0.354-0.206-0.69-0.479-0.971c-0.581-0.597-1.316-0.603-1.56-0.605l-0.192-0.002
			c-0.381-0.005-0.763-0.009-1.146-0.009c-0.238,0-0.479,0.002-0.717,0.006l-0.091,0.001c-0.341,0-0.604-0.046-0.811-0.14
			c-0.554-0.25-1.131-0.365-1.819-0.365c-0.416,0-0.815,0.041-1.203,0.081l-0.133,0.014c-0.137,0.014-0.271,0.031-0.403,0.048
			c-0.324,0.04-0.631,0.078-0.911,0.078c-0.432,0-0.711-0.088-0.966-0.305c-0.198-0.168-0.406-0.234-0.506-0.266
			c-1.297-0.428-2.486-1.137-3.378-1.706c-0.632-0.402-1.351-0.729-2.265-1.031c-0.038-0.013-0.063-0.021-0.081-0.03l-0.176-0.27
			c-0.416-0.637-0.809-1.238-1.042-1.889c-0.549-1.531-0.999-3.138-1.434-4.693l-0.048-0.166c-0.275-0.988-0.408-1.974-0.393-2.933
			c0.044-2.357-0.346-4.631-1.157-6.758c-0.277-0.732-0.627-1.339-1.063-1.854c-1.943-2.292-4.559-3.543-6.619-4.377
			c-0.991-0.4-2.115-0.853-2.979-1.577c-0.439-0.365-0.665-0.599-0.682-0.868c-0.024-0.393-0.06-0.784-0.094-1.174
			c-0.063-0.711-0.123-1.383-0.122-2.058c0-0.293,0.062-0.465,0.232-0.658c0.618-0.688,1.024-1.382,1.239-2.117
			c0.235-0.802,0.467-2.001-0.239-3.144c-0.111-0.184-0.163-0.346-0.168-0.534c-0.003-0.148,0-0.297,0-0.446
			c0.005-0.269,0.008-0.548-0.017-0.843l-0.012-0.155c-0.089-1.162-0.189-2.479-1.019-3.666c-0.513-0.734-1.154-1.438-1.964-2.153
			c-0.657-0.584-1.473-0.913-2.354-0.948C444.648,17.447,444.523,17.445,444.396,17.445 M455.189,70.123
			c-0.023-0.143-0.032-0.27-0.028-0.394c0.021-0.725-0.078-1.399-0.175-2.051c-0.034-0.226-0.067-0.453-0.097-0.68
			c-0.063-0.509-0.15-1.01-0.237-1.494c-0.183-1.015-0.354-1.975-0.271-2.923c0.021-0.221,0.043-0.449,0.078-0.677
			c0.064-0.404,0.126-0.811,0.188-1.219c0.164-1.084,0.335-2.196,0.549-3.288c0.349,1.643,0.819,3.059,1.447,4.367
			c0.173,0.358,0.333,0.72,0.494,1.083c0.249,0.556,0.506,1.132,0.801,1.699c0.344,0.657,0.749,1.192,1.229,1.611
			c-0.534,0.335-1.018,0.767-1.447,1.294c-0.44,0.54-0.92,1.08-1.384,1.602c-0.205,0.232-0.411,0.464-0.615,0.697
			C455.591,69.896,455.402,70.014,455.189,70.123 M428.873,66.371c0.341-0.302,0.636-0.654,0.887-1.057
			c0.941-1.512,1.875-3.174,2.324-5.078c0.05-0.209,0.116-0.419,0.189-0.636c0.188,0.664,0.291,1.226,0.215,1.768l-0.02,0.127
			l0.016,0.127c0.105,0.922,0.106,1.923,0.006,3.059l-0.039,0.469c-0.062,0.753-0.117,1.465-0.346,2.101
			c-0.178,0.498-0.24,0.992-0.297,1.428c-0.017,0.133-0.032,0.262-0.052,0.388c-0.636-0.365-1.124-0.769-1.485-1.229
			C429.802,67.234,429.348,66.756,428.873,66.371"/>
	</g>
	<g>
		<defs>
			<rect id="SVGID_24_" x="-109" y="-222" width="792" height="612"/>
		</defs>
		<clipPath id="SVGID_25_">
			<use xlink:href="#SVGID_24_"  overflow="visible"/>
		</clipPath>
		<path clip-path="url(#SVGID_25_)" fill="#00662F" d="M177.224,17.619l-1.231,5.701c0.915-0.729,1.805-1.287,2.675-1.675
			c0.87-0.387,1.884-0.581,3.042-0.581c1.335,0,2.444,0.294,3.324,0.882c0.881,0.588,1.477,1.441,1.791,2.557
			c0.313,1.116,0.305,2.44-0.026,3.972c-0.244,1.129-0.622,2.167-1.135,3.11s-1.139,1.762-1.878,2.454
			c-0.739,0.692-1.569,1.229-2.491,1.606c-0.92,0.378-1.887,0.568-2.899,0.568c-0.619,0-1.186-0.069-1.702-0.205
			c-0.516-0.137-0.941-0.317-1.276-0.54c-0.334-0.224-0.611-0.453-0.831-0.691c-0.218-0.237-0.498-0.592-0.837-1.066l-0.08,0.369
			c-0.151,0.702-0.448,1.232-0.888,1.593c-0.442,0.359-0.943,0.54-1.502,0.54c-0.57,0-0.986-0.181-1.246-0.54
			c-0.262-0.361-0.317-0.891-0.165-1.593l3.518-16.297c0.163-0.757,0.451-1.328,0.864-1.716c0.414-0.387,0.914-0.581,1.503-0.581
			c0.62,0,1.056,0.185,1.31,0.554S177.372,16.936,177.224,17.619 M175.021,28.707c-0.321,1.485-0.201,2.627,0.358,3.425
			c0.559,0.798,1.434,1.196,2.622,1.196c1.011,0,1.972-0.408,2.879-1.224c0.908-0.815,1.527-1.984,1.855-3.506
			c0.213-0.985,0.243-1.832,0.093-2.543c-0.152-0.711-0.465-1.26-0.942-1.648c-0.475-0.387-1.088-0.581-1.834-0.581
			c-0.765,0-1.49,0.194-2.173,0.581c-0.682,0.388-1.275,0.948-1.777,1.682C175.6,26.821,175.239,27.694,175.021,28.707"/>
	</g>
	<g>
		<defs>
			<rect id="SVGID_26_" x="-109" y="-222" width="792" height="612"/>
		</defs>
		<clipPath id="SVGID_27_">
			<use xlink:href="#SVGID_26_"  overflow="visible"/>
		</clipPath>
		<path clip-path="url(#SVGID_27_)" fill="#00662F" d="M194.039,19.301c-0.56,0-1.004-0.16-1.333-0.479
			c-0.329-0.319-0.431-0.771-0.305-1.354c0.114-0.529,0.412-0.964,0.894-1.306c0.481-0.342,0.992-0.513,1.532-0.513
			c0.521,0,0.948,0.155,1.285,0.465c0.336,0.31,0.439,0.761,0.312,1.354c-0.124,0.574-0.418,1.023-0.88,1.346
			C195.081,19.138,194.579,19.301,194.039,19.301 M195.196,23.156l-2.329,10.787c-0.161,0.747-0.475,1.313-0.941,1.695
			c-0.465,0.383-0.993,0.575-1.583,0.575c-0.588,0-1.025-0.197-1.309-0.588c-0.283-0.392-0.347-0.952-0.19-1.682l2.306-10.678
			c0.159-0.738,0.463-1.294,0.912-1.668s0.969-0.56,1.558-0.56c0.59,0,1.035,0.186,1.338,0.56
			C195.259,21.971,195.34,22.491,195.196,23.156"/>
	</g>
	<g>
		<defs>
			<rect id="SVGID_28_" x="-109" y="-222" width="792" height="612"/>
		</defs>
		<clipPath id="SVGID_29_">
			<use xlink:href="#SVGID_28_"  overflow="visible"/>
		</clipPath>
		<path clip-path="url(#SVGID_29_)" fill="#00662F" d="M213.228,28.625c-0.24,1.112-0.647,2.138-1.224,3.076
			c-0.576,0.939-1.291,1.745-2.143,2.42c-0.853,0.675-1.81,1.191-2.869,1.552c-1.06,0.359-2.203,0.54-3.432,0.54
			c-1.218,0-2.273-0.183-3.167-0.547s-1.623-0.887-2.189-1.565c-0.566-0.679-0.933-1.482-1.101-2.407
			c-0.169-0.924-0.132-1.948,0.11-3.069c0.244-1.13,0.654-2.165,1.23-3.104c0.576-0.938,1.284-1.741,2.125-2.406
			c0.842-0.665,1.796-1.177,2.866-1.538c1.07-0.36,2.204-0.54,3.403-0.54c1.217,0,2.283,0.183,3.197,0.547
			c0.913,0.364,1.65,0.884,2.212,1.559c0.561,0.674,0.926,1.476,1.093,2.406C213.506,26.479,213.469,27.503,213.228,28.625
			 M209.19,28.625c0.329-1.522,0.224-2.707-0.315-3.555c-0.539-0.847-1.418-1.271-2.636-1.271c-0.785,0-1.519,0.189-2.199,0.567
			c-0.681,0.378-1.263,0.937-1.747,1.675c-0.484,0.738-0.832,1.6-1.044,2.584c-0.21,0.976-0.235,1.827-0.074,2.557
			c0.162,0.729,0.498,1.287,1.009,1.674c0.511,0.388,1.169,0.581,1.975,0.581c1.218,0,2.279-0.425,3.185-1.278
			C208.251,31.307,208.866,30.128,209.19,28.625"/>
	</g>
	<g>
		<defs>
			<rect id="SVGID_30_" x="-109" y="-222" width="792" height="612"/>
		</defs>
		<clipPath id="SVGID_31_">
			<use xlink:href="#SVGID_30_"  overflow="visible"/>
		</clipPath>
		<path clip-path="url(#SVGID_31_)" fill="#00662F" d="M230.179,31.591c-0.101,0.465-0.357,0.962-0.771,1.49
			c-0.415,0.529-0.98,1.032-1.697,1.511c-0.717,0.478-1.573,0.863-2.57,1.155c-0.996,0.291-2.078,0.438-3.247,0.438
			c-2.485,0-4.28-0.672-5.384-2.017c-1.104-1.345-1.413-3.146-0.925-5.407c0.33-1.531,0.942-2.885,1.834-4.061
			c0.893-1.175,2.012-2.085,3.359-2.727c1.346-0.643,2.86-0.964,4.54-0.964c1.041,0,1.965,0.142,2.774,0.424
			c0.808,0.282,1.466,0.647,1.974,1.094c0.508,0.446,0.866,0.922,1.076,1.428s0.267,0.978,0.174,1.415
			c-0.097,0.447-0.358,0.825-0.783,1.135c-0.426,0.31-0.894,0.465-1.405,0.465c-0.333,0-0.594-0.08-0.78-0.239
			c-0.187-0.16-0.38-0.417-0.577-0.773c-0.343-0.692-0.743-1.212-1.203-1.558c-0.461-0.347-1.104-0.52-1.929-0.52
			c-1.189,0-2.239,0.431-3.152,1.292c-0.913,0.861-1.531,2.039-1.853,3.534c-0.152,0.702-0.197,1.347-0.138,1.935
			c0.059,0.588,0.222,1.089,0.486,1.504c0.263,0.415,0.623,0.729,1.078,0.943s0.981,0.321,1.581,0.321
			c0.805,0,1.532-0.172,2.182-0.519c0.649-0.347,1.271-0.875,1.867-1.586c0.336-0.419,0.672-0.747,1.009-0.984
			c0.335-0.238,0.709-0.356,1.122-0.356c0.492,0,0.861,0.173,1.111,0.52C230.181,30.83,230.263,31.199,230.179,31.591"/>
	</g>
	<g>
		<defs>
			<rect id="SVGID_32_" x="-109" y="-222" width="792" height="612"/>
		</defs>
		<clipPath id="SVGID_33_">
			<use xlink:href="#SVGID_32_"  overflow="visible"/>
		</clipPath>
		<path clip-path="url(#SVGID_33_)" fill="#00662F" d="M245.354,29.541h-7.868c-0.173,0.848-0.15,1.595,0.069,2.242
			c0.219,0.648,0.589,1.135,1.114,1.463c0.523,0.328,1.143,0.492,1.86,0.492c0.48,0,0.932-0.052,1.353-0.157
			c0.419-0.104,0.84-0.268,1.262-0.492c0.422-0.224,0.817-0.463,1.187-0.718c0.369-0.255,0.851-0.601,1.447-1.039
			c0.241-0.164,0.554-0.246,0.937-0.246c0.413,0,0.723,0.105,0.934,0.315c0.21,0.209,0.274,0.505,0.191,0.888
			c-0.073,0.337-0.3,0.732-0.682,1.183c-0.383,0.451-0.906,0.884-1.57,1.299c-0.665,0.415-1.46,0.758-2.389,1.032
			c-0.928,0.273-1.957,0.41-3.086,0.41c-2.584,0-4.444-0.684-5.584-2.051c-1.139-1.367-1.455-3.221-0.949-5.564
			c0.238-1.103,0.635-2.126,1.192-3.07c0.558-0.943,1.248-1.752,2.071-2.426c0.824-0.675,1.77-1.192,2.84-1.552
			c1.071-0.36,2.209-0.54,3.417-0.54c1.572,0,2.853,0.308,3.845,0.923c0.992,0.615,1.662,1.41,2.012,2.385
			c0.349,0.976,0.415,1.969,0.196,2.981c-0.202,0.938-0.623,1.547-1.264,1.825C247.25,29.401,246.405,29.541,245.354,29.541
			 M237.944,27.421h7.293c0.178-1.276,0.012-2.23-0.494-2.864c-0.506-0.634-1.285-0.95-2.336-0.95c-1.002,0-1.895,0.321-2.676,0.963
			C238.949,25.213,238.354,26.164,237.944,27.421"/>
	</g>
	<g>
		<defs>
			<rect id="SVGID_34_" x="-109" y="-222" width="792" height="612"/>
		</defs>
		<clipPath id="SVGID_35_">
			<use xlink:href="#SVGID_34_"  overflow="visible"/>
		</clipPath>
		<path clip-path="url(#SVGID_35_)" fill="#00662F" d="M257.102,23.101l-0.097,0.451c0.894-0.866,1.805-1.502,2.732-1.907
			c0.928-0.405,1.936-0.608,3.027-0.608c1.061,0,1.962,0.213,2.704,0.642c0.742,0.429,1.236,1.034,1.479,1.818
			c0.167,0.457,0.232,0.949,0.197,1.477c-0.035,0.528-0.143,1.203-0.319,2.023l-1.499,6.946c-0.161,0.747-0.468,1.312-0.919,1.695
			c-0.451,0.383-0.971,0.574-1.561,0.574c-0.598,0-1.042-0.196-1.331-0.588c-0.289-0.391-0.354-0.952-0.197-1.681l1.343-6.221
			c0.265-1.23,0.285-2.172,0.057-2.823c-0.227-0.652-0.891-0.978-1.992-0.978c-0.716,0-1.412,0.199-2.088,0.595
			c-0.675,0.397-1.224,0.941-1.648,1.634c-0.318,0.555-0.64,1.595-0.968,3.117l-1.01,4.676c-0.163,0.757-0.475,1.324-0.934,1.702
			s-0.99,0.567-1.589,0.567c-0.579,0-1.013-0.196-1.302-0.588c-0.289-0.391-0.355-0.952-0.197-1.681l2.329-10.787
			c0.153-0.711,0.435-1.242,0.845-1.593c0.409-0.351,0.904-0.526,1.484-0.526c0.353,0,0.655,0.077,0.907,0.232
			c0.252,0.155,0.43,0.388,0.534,0.697C257.193,22.276,257.199,22.655,257.102,23.101"/>
	</g>
	<g>
		<defs>
			<rect id="SVGID_36_" x="-109" y="-222" width="792" height="612"/>
		</defs>
		<clipPath id="SVGID_37_">
			<use xlink:href="#SVGID_36_"  overflow="visible"/>
		</clipPath>
		<path clip-path="url(#SVGID_37_)" fill="#00662F" d="M272.27,21.365h0.441l0.484-2.242c0.131-0.602,0.248-1.073,0.356-1.415
			c0.109-0.342,0.269-0.636,0.478-0.882c0.213-0.255,0.484-0.463,0.813-0.622c0.329-0.159,0.676-0.239,1.039-0.239
			c0.51,0,0.934,0.177,1.27,0.533c0.224,0.237,0.336,0.526,0.336,0.868c0,0.342-0.068,0.827-0.203,1.456l-0.549,2.543h1.472
			c0.569,0,0.978,0.125,1.223,0.376c0.246,0.251,0.326,0.572,0.242,0.964c-0.108,0.501-0.397,0.852-0.868,1.053
			c-0.471,0.2-1.104,0.3-1.898,0.3h-0.752l-1.482,6.864c-0.126,0.583-0.201,1.032-0.225,1.346c-0.023,0.315,0.039,0.57,0.188,0.766
			c0.149,0.196,0.44,0.294,0.872,0.294c0.236,0,0.564-0.039,0.982-0.116c0.421-0.077,0.742-0.117,0.969-0.117
			c0.324,0,0.59,0.122,0.798,0.363s0.274,0.54,0.198,0.895c-0.131,0.602-0.583,1.062-1.359,1.381
			c-0.775,0.319-1.826,0.479-3.152,0.479c-1.258,0-2.168-0.197-2.732-0.588c-0.563-0.392-0.872-0.935-0.922-1.627
			c-0.053-0.693,0.046-1.618,0.296-2.776l1.547-7.164h-0.531c-0.579,0-0.993-0.128-1.243-0.382c-0.248-0.255-0.33-0.58-0.246-0.971
			c0.084-0.392,0.313-0.713,0.687-0.964S271.66,21.365,272.27,21.365"/>
	</g>
	<g>
		<defs>
			<rect id="SVGID_38_" x="-109" y="-222" width="792" height="612"/>
		</defs>
		<clipPath id="SVGID_39_">
			<use xlink:href="#SVGID_38_"  overflow="visible"/>
		</clipPath>
		<path clip-path="url(#SVGID_39_)" fill="#00662F" d="M284.68,30.826l-0.673,3.117c-0.163,0.757-0.478,1.324-0.942,1.702
			s-0.99,0.568-1.58,0.568c-0.58,0-1.014-0.192-1.305-0.575c-0.291-0.382-0.355-0.948-0.195-1.695l2.244-10.39
			c0.361-1.677,1.196-2.516,2.502-2.516c0.668,0,1.106,0.196,1.316,0.588c0.211,0.391,0.248,0.971,0.112,1.736
			c0.646-0.765,1.265-1.345,1.856-1.736c0.59-0.392,1.308-0.588,2.151-0.588c0.845,0,1.622,0.196,2.334,0.588
			c0.711,0.391,0.996,0.911,0.856,1.558c-0.1,0.456-0.35,0.832-0.752,1.128s-0.801,0.445-1.193,0.445
			c-0.146,0-0.484-0.084-1.014-0.253s-1.008-0.253-1.44-0.253c-0.591,0-1.103,0.143-1.537,0.43
			c-0.435,0.288-0.817,0.713-1.146,1.279c-0.327,0.565-0.615,1.237-0.862,2.016C285.166,28.755,284.922,29.705,284.68,30.826"/>
	</g>
	<g>
		<defs>
			<rect id="SVGID_40_" x="-109" y="-222" width="792" height="612"/>
		</defs>
		<clipPath id="SVGID_41_">
			<use xlink:href="#SVGID_40_"  overflow="visible"/>
		</clipPath>
		<path clip-path="url(#SVGID_41_)" fill="#00662F" d="M308.286,28.625c-0.24,1.112-0.647,2.138-1.226,3.076
			c-0.574,0.939-1.291,1.745-2.143,2.42c-0.854,0.675-1.811,1.191-2.869,1.552c-1.06,0.359-2.203,0.54-3.432,0.54
			c-1.219,0-2.273-0.183-3.167-0.547s-1.623-0.887-2.188-1.565c-0.566-0.679-0.933-1.482-1.102-2.407
			c-0.169-0.924-0.133-1.948,0.109-3.069c0.244-1.13,0.653-2.165,1.229-3.104c0.576-0.938,1.284-1.741,2.125-2.406
			c0.842-0.665,1.796-1.177,2.866-1.538c1.068-0.36,2.203-0.54,3.402-0.54c1.217,0,2.282,0.183,3.196,0.547
			c0.913,0.364,1.65,0.884,2.212,1.559c0.563,0.674,0.928,1.476,1.093,2.406C308.565,26.479,308.528,27.503,308.286,28.625
			 M304.249,28.625c0.329-1.522,0.224-2.707-0.315-3.555c-0.539-0.847-1.418-1.271-2.635-1.271c-0.785,0-1.52,0.189-2.199,0.567
			c-0.682,0.378-1.264,0.937-1.748,1.675c-0.482,0.738-0.832,1.6-1.043,2.584c-0.211,0.976-0.234,1.827-0.072,2.557
			c0.16,0.729,0.496,1.287,1.008,1.674c0.511,0.388,1.169,0.581,1.975,0.581c1.219,0,2.279-0.425,3.186-1.278
			C303.311,31.307,303.925,30.128,304.249,28.625"/>
	</g>
	<g>
		<defs>
			<rect id="SVGID_42_" x="-109" y="-222" width="792" height="612"/>
		</defs>
		<clipPath id="SVGID_43_">
			<use xlink:href="#SVGID_42_"  overflow="visible"/>
		</clipPath>
		<path clip-path="url(#SVGID_43_)" fill="#00662F" d="M288.672,131.626l-0.673,3.117c-0.163,0.757-0.478,1.323-0.94,1.702
			c-0.466,0.378-0.992,0.566-1.582,0.566c-0.58,0-1.015-0.19-1.306-0.574c-0.291-0.383-0.354-0.946-0.192-1.694l2.242-10.39
			c0.361-1.679,1.196-2.518,2.502-2.518c0.668,0,1.107,0.196,1.317,0.588c0.21,0.393,0.247,0.973,0.11,1.736
			c0.646-0.766,1.266-1.344,1.855-1.736c0.592-0.392,1.309-0.588,2.152-0.588c0.846,0,1.623,0.196,2.334,0.588
			c0.711,0.393,0.996,0.912,0.855,1.559c-0.099,0.457-0.349,0.832-0.752,1.129c-0.402,0.297-0.801,0.443-1.193,0.443
			c-0.146,0-0.483-0.084-1.014-0.253c-0.527-0.168-1.008-0.253-1.439-0.253c-0.59,0-1.102,0.145-1.537,0.432
			s-0.816,0.713-1.146,1.277c-0.328,0.565-0.615,1.237-0.861,2.018C289.157,129.555,288.914,130.505,288.672,131.626"/>
	</g>
	<g>
		<defs>
			<rect id="SVGID_44_" x="-109" y="-222" width="792" height="612"/>
		</defs>
		<clipPath id="SVGID_45_">
			<use xlink:href="#SVGID_44_"  overflow="visible"/>
		</clipPath>
		<path clip-path="url(#SVGID_45_)" fill="#00662F" d="M308.647,130.341h-7.868c-0.174,0.849-0.149,1.597,0.068,2.242
			c0.221,0.647,0.59,1.135,1.113,1.463s1.145,0.492,1.861,0.492c0.479,0,0.932-0.052,1.354-0.157c0.42-0.104,0.84-0.27,1.262-0.492
			s0.816-0.462,1.187-0.718c0.37-0.255,0.853-0.603,1.447-1.039c0.241-0.164,0.555-0.246,0.938-0.246
			c0.411,0,0.724,0.106,0.934,0.315c0.211,0.209,0.273,0.505,0.191,0.888c-0.074,0.338-0.301,0.731-0.684,1.183
			c-0.383,0.453-0.905,0.886-1.569,1.299c-0.665,0.416-1.46,0.76-2.389,1.033c-0.93,0.272-1.958,0.41-3.088,0.41
			c-2.582,0-4.442-0.685-5.582-2.052c-1.141-1.366-1.455-3.222-0.95-5.563c0.237-1.104,0.637-2.127,1.192-3.069
			c0.559-0.943,1.248-1.752,2.071-2.427c0.823-0.674,1.771-1.191,2.839-1.553c1.07-0.358,2.209-0.539,3.417-0.539
			c1.571,0,2.854,0.309,3.847,0.922c0.991,0.615,1.662,1.412,2.012,2.387c0.349,0.976,0.414,1.969,0.196,2.98
			c-0.203,0.938-0.624,1.547-1.265,1.824C310.544,130.202,309.699,130.341,308.647,130.341 M301.238,128.223h7.293
			c0.177-1.275,0.012-2.229-0.494-2.865c-0.507-0.633-1.285-0.948-2.337-0.948c-1.002,0-1.894,0.319-2.677,0.963
			C302.243,126.014,301.646,126.964,301.238,128.223"/>
	</g>
	<g>
		<defs>
			<rect id="SVGID_46_" x="-109" y="-222" width="792" height="612"/>
		</defs>
		<clipPath id="SVGID_47_">
			<use xlink:href="#SVGID_46_"  overflow="visible"/>
		</clipPath>
		<path clip-path="url(#SVGID_47_)" fill="#00662F" d="M327.915,132.132c-0.222,1.03-0.683,1.912-1.381,2.646
			c-0.698,0.734-1.617,1.291-2.755,1.668c-1.138,0.379-2.463,0.568-3.976,0.568c-1.443,0-2.638-0.205-3.58-0.615
			c-0.942-0.412-1.593-0.924-1.951-1.539c-0.358-0.614-0.471-1.231-0.338-1.853c0.09-0.409,0.321-0.761,0.699-1.053
			c0.378-0.291,0.808-0.438,1.288-0.438c0.422,0,0.727,0.096,0.91,0.287c0.186,0.191,0.343,0.461,0.475,0.807
			c0.27,0.666,0.655,1.162,1.158,1.49c0.504,0.328,1.252,0.492,2.244,0.492c0.805,0,1.502-0.166,2.089-0.499
			c0.588-0.331,0.928-0.713,1.021-1.142c0.142-0.656-0.022-1.135-0.493-1.436c-0.472-0.302-1.29-0.589-2.459-0.861
			c-1.315-0.318-2.371-0.653-3.164-1.006c-0.794-0.351-1.389-0.813-1.785-1.387s-0.505-1.281-0.323-2.119
			c0.161-0.748,0.556-1.453,1.181-2.119c0.623-0.666,1.448-1.196,2.473-1.594c1.021-0.396,2.198-0.595,3.523-0.595
			c1.04,0,1.954,0.101,2.741,0.302c0.787,0.2,1.422,0.469,1.903,0.805c0.48,0.34,0.824,0.713,1.025,1.123
			c0.2,0.41,0.26,0.812,0.175,1.203c-0.094,0.429-0.323,0.778-0.691,1.053c-0.368,0.273-0.838,0.41-1.407,0.41
			c-0.412,0-0.739-0.109-0.981-0.33c-0.242-0.217-0.503-0.545-0.782-0.982c-0.226-0.363-0.521-0.656-0.887-0.875
			c-0.366-0.219-0.901-0.328-1.608-0.328c-0.728,0-1.363,0.145-1.905,0.432c-0.543,0.287-0.86,0.646-0.953,1.072
			c-0.085,0.393,0.022,0.715,0.322,0.965c0.298,0.25,0.731,0.457,1.294,0.621c0.563,0.164,1.347,0.365,2.347,0.603
			c1.186,0.282,2.133,0.62,2.839,1.012c0.705,0.394,1.206,0.854,1.498,1.388C327.992,130.841,328.063,131.448,327.915,132.132"/>
	</g>
	<g>
		<defs>
			<rect id="SVGID_48_" x="-109" y="-222" width="792" height="612"/>
		</defs>
		<clipPath id="SVGID_49_">
			<use xlink:href="#SVGID_48_"  overflow="visible"/>
		</clipPath>
		<path clip-path="url(#SVGID_49_)" fill="#00662F" d="M346.961,129.425c-0.24,1.112-0.648,2.138-1.225,3.076
			s-1.291,1.746-2.144,2.42c-0.854,0.675-1.81,1.192-2.869,1.552c-1.06,0.36-2.204,0.541-3.432,0.541
			c-1.218,0-2.273-0.184-3.168-0.548c-0.894-0.364-1.623-0.886-2.188-1.565c-0.565-0.678-0.933-1.479-1.102-2.405
			c-0.168-0.925-0.132-1.948,0.109-3.069c0.245-1.13,0.653-2.164,1.23-3.104c0.576-0.938,1.283-1.74,2.125-2.406
			c0.841-0.665,1.796-1.177,2.866-1.538c1.069-0.358,2.203-0.54,3.402-0.54c1.217,0,2.282,0.184,3.195,0.547
			c0.914,0.365,1.651,0.885,2.213,1.559c0.563,0.676,0.926,1.478,1.095,2.406C347.238,127.279,347.202,128.305,346.961,129.425
			 M342.924,129.425c0.328-1.521,0.225-2.707-0.314-3.555c-0.539-0.849-1.418-1.271-2.637-1.271c-0.785,0-1.52,0.188-2.199,0.566
			c-0.681,0.379-1.264,0.938-1.746,1.675c-0.483,0.738-0.832,1.601-1.044,2.584c-0.211,0.976-0.234,1.828-0.073,2.558
			c0.16,0.729,0.498,1.287,1.009,1.675s1.169,0.579,1.974,0.579c1.219,0,2.28-0.424,3.188-1.276
			C341.983,132.107,342.599,130.93,342.924,129.425"/>
	</g>
	<g>
		<defs>
			<rect id="SVGID_50_" x="-109" y="-222" width="792" height="612"/>
		</defs>
		<clipPath id="SVGID_51_">
			<use xlink:href="#SVGID_50_"  overflow="visible"/>
		</clipPath>
		<path clip-path="url(#SVGID_51_)" fill="#00662F" d="M353.646,131.626l-0.674,3.117c-0.163,0.757-0.478,1.323-0.941,1.702
			c-0.464,0.378-0.991,0.566-1.581,0.566c-0.579,0-1.015-0.19-1.306-0.574c-0.29-0.383-0.354-0.946-0.193-1.694l2.243-10.39
			c0.361-1.679,1.196-2.518,2.503-2.518c0.668,0,1.105,0.196,1.316,0.588c0.209,0.393,0.247,0.973,0.11,1.736
			c0.646-0.766,1.265-1.344,1.856-1.736c0.591-0.392,1.308-0.588,2.151-0.588s1.622,0.196,2.334,0.588
			c0.71,0.393,0.996,0.912,0.856,1.559c-0.1,0.457-0.35,0.832-0.752,1.129s-0.802,0.443-1.193,0.443
			c-0.146,0-0.485-0.084-1.014-0.253c-0.528-0.168-1.008-0.253-1.44-0.253c-0.59,0-1.102,0.145-1.537,0.432
			c-0.435,0.287-0.816,0.713-1.146,1.277c-0.328,0.565-0.616,1.237-0.862,2.018C354.132,129.555,353.888,130.505,353.646,131.626"/>
	</g>
	<g>
		<defs>
			<rect id="SVGID_52_" x="-109" y="-222" width="792" height="612"/>
		</defs>
		<clipPath id="SVGID_53_">
			<use xlink:href="#SVGID_52_"  overflow="visible"/>
		</clipPath>
		<path clip-path="url(#SVGID_53_)" fill="#00662F" d="M365.5,122.165h0.442l0.483-2.242c0.13-0.603,0.248-1.073,0.356-1.415
			c0.107-0.342,0.268-0.636,0.478-0.882c0.212-0.255,0.483-0.462,0.813-0.622c0.329-0.159,0.676-0.238,1.039-0.238
			c0.51,0,0.934,0.178,1.27,0.532c0.224,0.237,0.336,0.526,0.336,0.868c-0.001,0.342-0.067,0.827-0.204,1.456l-0.549,2.543h1.472
			c0.57,0,0.979,0.126,1.225,0.376c0.246,0.251,0.326,0.572,0.242,0.964c-0.108,0.502-0.398,0.853-0.868,1.054
			c-0.473,0.2-1.104,0.301-1.899,0.301h-0.752l-1.48,6.863c-0.126,0.584-0.201,1.031-0.226,1.346
			c-0.023,0.315,0.039,0.57,0.188,0.767c0.148,0.196,0.438,0.294,0.872,0.294c0.234,0,0.563-0.038,0.981-0.115
			c0.42-0.078,0.742-0.117,0.968-0.117c0.325,0,0.592,0.121,0.8,0.362c0.208,0.242,0.273,0.54,0.196,0.896
			c-0.13,0.602-0.583,1.063-1.357,1.381c-0.776,0.317-1.827,0.479-3.153,0.479c-1.258,0-2.168-0.197-2.731-0.589
			c-0.563-0.392-0.871-0.934-0.923-1.627c-0.052-0.692,0.047-1.616,0.297-2.774l1.548-7.164h-0.531
			c-0.579,0-0.994-0.127-1.243-0.383s-0.332-0.578-0.247-0.972c0.085-0.392,0.314-0.713,0.688-0.964
			C364.399,122.291,364.891,122.165,365.5,122.165"/>
	</g>
</g>
</svg>
